<svg height="452pt" viewBox="0 -37 452.43858 452" width="452pt" xmlns="http://www.w3.org/2000/svg"><path d="m445.441406 238.777344-58.441406 38.191406-47.148438 30.808594v-41.398438h-124.410156v-55.199218h124.410156v-41.402344l47.148438 30.8125zm0 0" fill="#6fe3ff"/><path d="m387 276.96875v50.921875c0 23.445313-19.011719 42.453125-42.460938 42.449219h-290.609374c23.449218.003906 42.460937-19.003906 42.460937-42.449219v-178.222656c-.003906-23.445313 19.003906-42.453125 42.449219-42.449219h205.699218c23.449219-.003906 42.460938 19.003906 42.460938 42.449219v50.921875l-47.148438-30.8125v41.402344h-124.410156v55.199218h124.410156v41.398438zm0 0" fill="#e48e66"/><path d="m334.929688 98.570312v8.648438h-196.089844c-23.445313-.003906-42.453125 19.003906-42.449219 42.449219v178.222656c0 23.445313-19.011719 42.453125-42.460937 42.449219h-4.46875c-23.449219.003906-42.460938-19.003906-42.460938-42.449219v-278.222656c0-23.445313 19.011719-42.453125 42.460938-42.449219h95.25c11.921874 0 23.292968 5.011719 31.339843 13.808594l28.910157 31.632812c2.011718 2.203125 4.855468 3.457032 7.839843 3.460938h79.667969c23.449219-.007813 42.460938 19 42.460938 42.449218zm0 0" fill="#f8ec7d"/><path d="m49.460938 377.339844h295.078124c27.300782-.027344 49.429688-22.148438 49.460938-49.449219v-47.132813l55.269531-36.121093c1.976563-1.292969 3.167969-3.496094 3.167969-5.859375 0-2.359375-1.191406-4.5625-3.167969-5.855469l-55.269531-36.121094v-47.132812c-.035156-27.300781-22.160156-49.421875-49.460938-49.449219h-2.609374v-1.648438c-.035157-27.300781-22.160157-49.421874-49.460938-49.449218h-79.667969c-1.019531-.003906-1.988281-.433594-2.671875-1.183594l-28.910156-31.628906c-9.378906-10.242188-22.621094-16.078125-36.507812-16.089844h-95.25c-27.300782.027344-49.4257818 22.148438-49.460938 49.449219v278.222656c.0351562 27.300781 22.160156 49.421875 49.460938 49.449219zm297.390624-82.5v-28.460938c0-3.867187-3.136718-7-7-7h-117.410156v-41.199218h117.410156c3.863282 0 7-3.132813 7-7v-28.464844l36.320313 23.734375 49.472656 32.328125zm-2.3125-180.621094c19.570313.023438 35.433594 15.878906 35.460938 35.449219v37.984375l-36.320312-23.734375c-2.152344-1.40625-4.902344-1.519531-7.160157-.296875-2.261719 1.226562-3.667969 3.589844-3.667969 6.15625v34.402344h-117.410156c-3.867187 0-7 3.132812-7 7v55.199218c0 3.867188 3.132813 7 7 7h117.410156v34.398438c0 2.570312 1.40625 4.933594 3.667969 6.160156 2.257813 1.222656 5.007813 1.109375 7.160157-.296875l36.320312-23.738281v37.988281c-.027344 19.570313-15.890625 35.425781-35.460938 35.449219h-256.175781c9.609375-9.292969 15.03125-22.085938 15.027344-35.449219v-178.222656c.019531-19.566407 15.878906-35.425781 35.449219-35.449219zm-330.539062-64.550781c.027344-19.570313 15.890625-35.425781 35.460938-35.449219h95.25c9.953124.007812 19.449218 4.191406 26.171874 11.535156l28.910157 31.625c3.339843 3.652344 8.058593 5.730469 13.007812 5.738282h79.667969c19.570312.023437 35.433594 15.878906 35.460938 35.449218v1.652344h-189.089844c-27.296875.03125-49.417969 22.152344-49.449219 49.449219v178.222656c-.027344 19.570313-15.890625 35.425781-35.460937 35.449219h-4.46875c-19.570313-.023438-35.433594-15.878906-35.460938-35.449219zm0 0" fill="#63316d"/></svg>