<?xml version="1.0" encoding="UTF-8" standalone="no"?><svg xmlns="http://www.w3.org/2000/svg" height="298.178" width="213.101" viewBox="0 0 56.383 78.893"><defs><clipPath id="a"><path d="M0 273.21h745.65V0H0z"/></clipPath><clipPath id="b"><path d="M-132.76 185.75h265.51v-371.51h-265.51z"/></clipPath><linearGradient id="c" gradientUnits="userSpaceOnUse" gradientTransform="translate(-123.43 -116.06) scale(246.59)"><stop stop-color="#faf3ad" offset="0"/><stop stop-color="#faf3ad" offset=".041"/><stop stop-color="#ffe475" offset=".211"/><stop stop-color="#e8bc46" offset=".491"/><stop stop-color="#e7bd50" offset=".758"/><stop stop-color="#ddbc65" offset=".964"/><stop stop-color="#ddbc65" offset="1"/></linearGradient></defs><g clip-path="url(#a)" transform="matrix(.35278 0 0 -.35278 -6.786 87.67)"><g clip-path="url(#b)" transform="matrix(.60196 0 0 -.60196 99.152 136.69)"><path d="M-115.6-131.14s5.836 19.883 25.253 23.054M-91.839-140.7c-1.949 3.448-1.31 7.813.613 11.274s4.963 6.209 7.948 8.89c1.981 1.78 3.999 3.584 6.428 4.749 2.428 1.164 5.368 1.619 7.866.599M-65.046-149.05c-.903 6.057-.16 12.299 2.149 18.058 1.643 4.098 4.199 8.078 8.23 10.577 4.032 2.499 9.756 3.194 13.897.839M36.547-153.53h-.182c2.436 2.823 1.425 6.824.197 10.242-1.807 5.033-3.721 10.183-7.406 14.268-3.685 4.086-9.58 6.935-15.236 5.808M67.434-149.19c.879 8.89-2.369 18.104-8.629 24.477-2.78 2.829-6.499 5.217-10.443 4.8M93.304-141.92c-1.306 12.634-9.149 24.12-19.608 28.719M116.24-132.17c-1.131 5.564-4.321 10.38-8.173 14.076-3.853 3.696-8.366 6.393-12.871 8.984" stroke="#000" stroke-miterlimit="10" stroke-width="2" fill="none"/><path d="M77.056-92.282a1.579 1.579 0 0 0-.442-.163 4.903 4.903 0 0 0-.702-1.901c.34-.437.597-.933.773-1.462a5.084 5.084 0 0 0 1.568-1.021 60.124 60.124 0 0 1 3.961-.008c.024.103.057.206.104.311a8.732 8.732 0 0 1 .754 3.695c-1.861 1.225-3.949 1.705-6.016.549m2.058 10.204a1.559 1.559 0 0 0-.342.235c-1.051-.113-2.091-.118-3.068.113a4.943 4.943 0 0 0-1.225-2.091 5.14 5.14 0 0 0-.018-1.855 5.124 5.124 0 0 0 1.724-2.022c.122.034.251.06.394.066.778.036 1.678.079 2.604.064.2.566.717.94 1.293.989.638 1.77.632 3.508-1.362 4.501M63.83-88.074c-.02.139-.025.277-.034.415a28.886 28.886 0 0 0-8.94-1.725 4.645 4.645 0 0 0-1.487-.085 78.655 78.655 0 0 0-3.747-.883 153.808 153.808 0 0 1-.288-6.146c.28-.277.451-.67.505-1.101l.232-1.853a5.23 5.23 0 0 0 1.645.419l5.417.468c.094.037.196.068.307.091l6.382 1.308c.506.33.914.731 1.173 1.206l-1.165 7.886M37.778-99.738l-.014.011c-2.478 2.502-5.401.326-7.82-1.122l.062-.996a5.03 5.03 0 0 0-.058-1.121 5.03 5.03 0 0 0 1.278-1.152 18.91 18.91 0 0 1 2.106-.316c.998-.086 2.002-.053 3.001-.011.292.012.471.088.58.157a6.013 6.013 0 0 0 1.745 2.1 4.959 4.959 0 0 0-.88 2.45m-.627 8.401c-.235.26-.441.54-.618.841-.25.089-.495.192-.726.328-.836.49-1.485 1.234-1.913 2.096-.122-.088-.23-.187-.364-.266a4.984 4.984 0 0 0-2.43-.665c-.01-.017-.016-.034-.026-.05a5.016 5.016 0 0 0-1.751-1.741l.142-2.303c.065-.062.13-.127.188-.204.565-.748 1.242-1.254 2.055-1.706 1.175-.652 1.985-.525 3.077.114.309.181.643.28.985.337.094.381.323.715.69.895.227.419.468.83.734 1.223-.009.372-.014.748-.043 1.101M8.584-94.036c-.758.764-2.335.228-3.281.133-1.359-.137-2.724.028-4.064.247-.343.056-.595.197-.772.387a238.317 238.317 0 0 0-7.076-.105c-.135-.465-.444-.856-.984-1.004-.013-.004-.028-.004-.042-.007.216-1.98.34-3.964.333-5.965a1.4 1.4 0 0 0-.362-.97c.107-.413.232-.824.387-1.233 2.991.3 5.998.404 9.023.267.829-.037 5.183-.356 6.697-.337a39.175 39.175 0 0 1 1.147 8.148c-.341-.001-.693.124-1.006.439m-34.648 2.187c-.271 1.409-.828 2.504-1.789 3.513-2.491.635-5.001-1.662-4.294-4.478.551-2.198 2.916-1.951 5.097-1.277.073.065.149.132.167.15.074.075.145.153.213.233-.068-.099-.051-.074.053.074a4.572 4.572 0 0 1 .356.621c.036.099.069.199.098.301.055.179.143.341.25.484-.059.116-.122.228-.151.379m-7.269-7.807c-.169-.458-.497-.821-.911-.993.053-.268.109-.536.175-.804.156-.63.187-1.218.134-1.768.547.105 1.141-.071 1.513-.685a1.825 1.825 0 0 1 1.586-.909c.218-.003.402-.053.569-.124.09.043.185.076.286.096l1.324.26c.234.046.47.043.693-.003.029.043.061.085.089.128.397.595.73 1.229 1.053 1.865.153.303.261.593.395 1.016-.292.192-.52.474-.598.829l-.262 1.192c-.602-.232-1.302-.108-1.674.651-.836 1.705-2.665.791-4.108-.037l-.264-.714m-25.676 12.463a1.534 1.534 0 0 0-1.584-.532l-2.506.641c-.116.03-.222.077-.323.133-.657-2.566-.487-5.504-.54-8.17.285.141.635.172 1.042.011l1.085-.429c.363.142.8.138 1.26-.105l.087-.046c.024-.002.045.007.068.004l3.09-.356c.42-.049.743-.238.978-.493 2.663-.116 5.358-.052 7.986-.459.178.23.393.421.634.546a1.49 1.49 0 0 0 .003.333c.014.11.022.221.036.332-.249.239-.42.574-.435 1.013-.068 2.014.254 3.983.652 5.945-3.764.968-7.653 1.322-11.533 1.632m-13.4 2.071c-.571.974-.883 2.359-.601 3.508l-3.076.177c-.007 0-.013.002-.02.003l-.911-.214a1.598 1.598 0 0 0-.627-.012c.087-.471-.024-.974-.381-1.335l-1.007-1.018c.454-.362.62-.969.52-1.578.014.119.014.083 0-.107.001.01.031-.317.022-.328a3.17 3.17 0 0 1 .072-.275c.02-.069.029-.103.034-.126.005.007.026-.011.094-.133.04-.072.07-.147.097-.223l2.851-.65a1.41 1.41 0 0 0 .68-.358c.214.337.455.643.703.892.555.555 1.24.946 1.976 1.19-.151.188-.303.377-.426.587m-7.755-5.592a5.17 5.17 0 0 0-1.914-1.726c.066-.297.116-.601.137-.912a25.1 25.1 0 0 0 .044-2.275 5.236 5.236 0 0 0 1.942-1.154 5.215 5.215 0 0 0 3.104-.03 5.345 5.345 0 0 0 2.002 1.893c-.03.187-.058.379-.083.576l-.227 1.806c-.369.103-.704.352-.958.689-.71.943-2.016 1.329-3.137 1.071a1.49 1.49 0 0 0-.91.062m202.77-41.418a6.484 6.484 0 0 0 .077-2.365 1.076 1.076 0 0 0-.084-.286c.424-1.31-1.317-2.74-2.481-1.532a7.635 7.635 0 0 0-1.2 1.647l-.504.045a1.72 1.72 0 0 0-1.129.534l-.129-.018c-.809-.111-1.607.182-1.845 1.048-.12.437-.001.995.298 1.384-.04.125-.071.257-.08.404l-.252 4.084c-.009.14.003.267.025.387-.339.64-.693 1.288-1.059 1.939a1.52 1.52 0 0 0-1.196.639c-3.329 4.523-7.154 8.604-11.407 12.268-.283.244-.429.519-.476.795a12.818 12.818 0 0 1-6.155.751c-.076-.009-.144-.005-.215-.004l-4.157-2.559a10.533 10.533 0 0 1-.263-4.174c.04-.282.004-.536-.077-.764l2.843-5.928a1.492 1.492 0 0 0-.038-1.421 114.72 114.72 0 0 0 3.439-7.378c.356-.151.664-.43.814-.901l1.083-3.417c.017-.054.021-.103.033-.154.18-.159.345-.331.546-.472a1.59 1.59 0 0 0 .356-.347l.578-.222c.763-.291 1.281-.999 1.048-1.845-.014-.049-.038-.096-.057-.144a1.7 1.7 0 0 0-.022-.606l-.662-3.001c-.108-.491-.496-.851-.954-1.009-.043-.628-.363-1.184-1.053-1.373-.714-.197-1.726.237-1.845 1.047l-.072.486c-.042.019-.085.032-.126.055l-1.496.841c-.123.069-.227.16-.321.258l-.393.004c-.817.009-1.5.677-1.5 1.5 0 .793.653 1.472 1.445 1.495.261 2.24-.042 4.265-1.1 6.29-.444.849-1.101 1.636-1.348 2.581-.082.316-.133.731-.209 1.147a1.42 1.42 0 0 0-.284.419c-.215.486-.456.952-.71 1.408a1.52 1.52 0 0 0-.242.414 15.015 15.015 0 0 1-1.838 2.488c-.904.983-1.749 1.773-2.121 2.945a1.994 1.994 0 0 0-.681.582c-.551.73-1.024 1.673-1.595 2.507-.56.096-1.067.494-1.204 1.071l-.07.294a3.003 3.003 0 0 1-1.168.534c-.593.119-.921.483-1.036.915-2.156.689-4.434.87-6.756.467-.4-.069-.747.011-1.034.174-1.251-.738-2.374-1.675-3.248-2.845a1.986 1.986 0 0 0-.591-.532c-.469-1.816-.162-4.013 0-5.65a1.363 1.363 0 0 0-.119-.735l1.614-11.117a75.745 75.745 0 0 1 3.922-8.206l.374.016c.818.035 1.5-.709 1.5-1.5 0-.844-.683-1.465-1.5-1.5l-.33-.014-.374-1.19a1.576 1.576 0 0 0-.963-1.016v-.773c0-1.935-3-1.935-3 0v.064c-.679.011-1.337.244-1.787.807-.047.059-.086.121-.126.183-.546-.039-1.08.177-1.39.705-.389.664-.196 1.695.538 2.052l.401.195c-.075.463.036.953.387 1.304.115.116.254.19.394.26.045.086.098.168.162.242-.948 6.588-3.86 12.557-6.867 18.488a1.528 1.528 0 0 0-.159.622 4.63 4.63 0 0 0-.813.356c-.894.494-1.602 1.577-2.275 2.312l-3.413 3.729-5.049.123a1.532 1.532 0 0 0-.511.101 11.456 11.456 0 0 1-2.778-1.54 1.555 1.555 0 0 0-1.1-.965 12.076 12.076 0 0 1-2.819-4.359c-.02-.05-.046-.092-.069-.138a8.607 8.607 0 0 1 .031-1.207c.057-.559-.161-.949-.496-1.181a51.727 51.727 0 0 1-.246-6.819c.014-.454-.144-.796-.389-1.037l-.073-.77c.356-3.799.84-7.586 1.478-11.364.025-.15.024-.291.012-.427.438-.586.91-1.146 1.459-1.644a1.44 1.44 0 0 0 .396-.572c.407-.542.359-1.448-.141-2.027-.014-.03-.014-.062-.03-.092l-1.137-2.083c.036-.574.043-1.151.014-1.731-.096-1.925-3.097-1.934-3 0 .01.197-.006.387-.004.581-.342.027-.674.16-.919.424l-1.524 1.644c-.021.024-.037.05-.057.075l-.105-.013c-1.635-.189-1.857 1.955-.716 2.733-.046.162-.069.34-.049.546l.576 6.083c-.504 1.683-.822 3.462-1.031 5.271-.113.158-.19.349-.24.56l-4.311 8.262a1.434 1.434 0 0 0-.148.949l-1.445 1.675a1.757 1.757 0 0 0-.388.757c-2.969 2.403-6.242 4.367-9.817 5.814a1.63 1.63 0 0 0-.399.239c-1.497-.123-3-.383-4.521-.828-6.664-1.95-9.253-9.01-10.77-15.043-.128-.506-.434-.812-.8-.96l-.302-14.685a1.545 1.545 0 0 0-.138-.624l.669.062c.815.075 1.5-.739 1.5-1.5 0-.875-.686-1.425-1.5-1.5l-.224-.021c-.013-.528-.242-.998-.695-1.271a3.371 3.371 0 0 1 .002-.568c.064-.695-.519-1.291-1.164-1.453-.336-.884-1.447-1.129-2.193-.722a1.441 1.441 0 0 0-.644-.148c-.75 0-1.589.685-1.5 1.5l.055.498a1.599 1.599 0 0 0-.674.371l-1.421 1.33a1.381 1.381 0 0 0-.414.805 1.444 1.444 0 0 0-.544 1.133c0 .788.683 1.539 1.5 1.5l.691-.033.734 6.616c-.403 4.294-1.541 8.561-1.485 12.9a49.132 49.132 0 0 1-8.338 11.802 1.655 1.655 0 0 0-.218.286 15.833 15.833 0 0 1-5.216 1.064 1.43 1.43 0 0 0-1.027.447c-3.449-.691-6.404-2.091-8.979-4.839-2.579-2.752-4.119-6.465-5.661-9.849a1.372 1.372 0 0 0-.457-.566 33.45 33.45 0 0 1-.792-3.44c-.096-.565-.42-.886-.818-1.015a151.717 151.717 0 0 1-1.627-10.183c-.001-.011-.005-.019-.007-.03l.766-.116c.809-.124 1.245-1.128 1.048-1.846-.236-.856-1.038-1.17-1.846-1.047l-.576.088c.048-.744-.253-1.447-1.05-1.667a1.558 1.558 0 0 0-.806.019c-.153-1.19-1.495-1.546-2.326-1.049-.841.081-1.649.795-1.376 1.856l.011.043a1.316 1.316 0 0 0-.25.515c-.005.02-.065.204-.074.254-.057.091-.143.22-.154.247a1.995 1.995 0 0 0-.132.132c-.14.076-.405.203-.191.125-.549.2-.96.631-1.07 1.165-.758.834-.407 2.558 1.061 2.558h.483c.028.139.071.281.145.425a56.266 56.266 0 0 1 2.303 5.046 1.491 1.491 0 0 0-.063.532l1.021 16.578a24047.1 24047.1 0 0 0-3.751 7.043c-.024.044-.035.086-.054.13-2.344 1.737-5.356 2.52-8.569 2.145a1.59 1.59 0 0 0-.307-.005 24.92 24.92 0 0 1-3.203-1.453 1.613 1.613 0 0 0-.208-.237c-4.619-4.334-7.542-9.724-8.699-15.948-.069-.371-.237-.636-.458-.813-.012-.086-.03-.171-.042-.257a1.327 1.327 0 0 0-.277-.668 33.961 33.961 0 0 1 .832-9.359c.227-.985-.456-1.668-1.221-1.831a1.975 1.975 0 0 0-.632-.403l-2.257-.899a1.1 1.1 0 0 0-.26-.065l-.19-.874c-.403-1.854-3.184-1.115-2.905.693a1.606 1.606 0 0 0-.399.65l-.11.355a1.78 1.78 0 0 0-.095.303l-.583 1.863c-.353.013-.701.14-.979.418-.558.559-.603 1.569 0 2.121.357.326.772.507 1.196.568a114.906 114.906 0 0 1 6.29 23.857c-.573 4.057-3.719 5.308-7.146 5.342a50.712 50.712 0 0 1-3.778-.478c-4.873-2.952-11.23-6.556-12.273-12.429-.146-.822-.769-1.136-1.402-1.077a166.167 166.167 0 0 1-2.201-6.07c.228-.261.371-.591.348-.952l-.161-2.476c.721-.315 1.206-.987.979-1.813-.199-.724-1.084-1.348-1.845-1.047l-.712.281c-.174-.596-.66-1.048-1.31-1.099a7.434 7.434 0 0 0-.801-1.139c-.532-.622-1.577-.545-2.121 0-.611.611-.532 1.501 0 2.121.203.237.368.506.51.786a1.19 1.19 0 0 0-.163.397 3.37 3.37 0 0 1-.088.346c-.002-.022-.059.098-.098.181-.024.019-.158.199-.174.215l-.047.042c-.08.052-.164.1-.25.142-.723.38-.937 1.371-.538 2.052.228.389.593.612.992.689.008.017.011.033.02.05 3.93 7.434 7.334 15.048 10.11 22.976a1.623 1.623 0 0 0-.141.336l-.981 3.385c-.974.589-2.694 1.001-3.727.707-.431-.122-.801-.056-1.098.116-2.942-1.482-6.847-2.13-8.592-5.172-.384-.669-1.026-.825-1.6-.671-1.18-1.439-2.294-2.864-3.372-4.104a1.368 1.368 0 0 0-.696-.447l-.3-.427a2.027 2.027 0 0 0-.206-.244 7.02 7.02 0 0 1-.772-1.645 1.466 1.466 0 0 0-.374-.603v-.103c0-1.08-.935-1.555-1.761-1.43-.337-1.353-.587-2.695-1.264-4.009-.199-.386-.503-.705-.856-.992.2-.178.346-.406.423-.661.252-.335.364-.757.232-1.236-.198-.721-1.085-1.354-1.845-1.048l-.547.22a1.546 1.546 0 0 0-.291-.364l-1.873-1.707a1.561 1.561 0 0 0-.8-.387c-.722-1.006-2.73-.719-2.743.863l-.026 3.201c-.572.216-.995.669-.995 1.371 0 .737.687 1.607 1.5 1.5l.759-.1c.037.048.069.097.113.144 1.095 1.132 2.438 1.948 3.651 2.938-.078.248-.089.535.01.855 1.289 4.195 3.754 7.852 7.079 10.552-.196.484-.155 1.058.316 1.544 3.591 3.701 7.822 6.496 12.557 8.403-.085.36-.139.729-.139 1.112 0 .388.057.762.144 1.126-.188.809-.197 1.653.018 2.435.699 2.543 3.055 3.793 5.505 3.568-.009.144-.012.289-.022.434-.08 1.184.368 2.283 1.111 3.148-.05.06-.099.121-.141.193-.384.656-.203 1.707.538 2.052.118.055.225.127.341.186-.059.235-.063.482.027.719l.751 1.985c-.015.27.048.538.219.763.565.744.874 1.518.871 2.456 0 .286.07.524.181.725-.421.467-.493 1.231-.178 1.768.247.423.643.635 1.07.691.185.263.427.488.729.644.204.105.439.21.685.312a4.959 4.959 0 0 0-.266 1.53c0 1.321.532 2.602 1.465 3.536.858.858 2.282 1.588 3.535 1.464l1.667-.164a7.88 7.88 0 0 0 1.647-.321c.506.173 1.044.26 1.603.228l5.996-.344c.497.19 1.052.309 1.667.339 14.799.715 29.608.889 44.42.523a5.334 5.334 0 0 0 1.583-.279l33.383-.535c.444.127.9.216 1.367.216.488 0 1.034-.085 1.564-.247 1.882.437 4.029.358 5.852.329l19.168-.315c.128-.002.242-.024.364-.034.373.008.745.009 1.116-.001l2.684.027a1.51 1.51 0 0 0 .638-.124c4.234.184 8.469.202 12.702.049 4.682.665 9.67.149 14.406-.045l.099.01c.294.028.572.032.838.017l2.566.21c.301.025.584-.07.821-.236.915.249 1.89.272 2.8.011l.24.044 2.381.439c1.324.244 2.645.058 3.745-.513.122.031.248.05.375.038.471-.04.92-.121 1.357-.238 1.097.562 2.097-.373 2.149-1.344.072-.196.104-.405.095-.615a4.895 4.895 0 0 0 .957-2.879v-.333c0-.422-.073-.824-.176-1.216.262-.269.426-.632.426-1.034v-.017c.581-.31.869-1.12.703-1.724a1.323 1.323 0 0 0-.704-.859c-.504-1.181-.958-2.359-1.211-3.603.079-.159.141-.335.165-.536.214-1.76.752-3.372 1.56-4.89.349-.022.686-.153.924-.427.63-.721 1.372-.999 2.31-.916.816.072 1.5-.737 1.5-1.5 0-.115-.013-.223-.036-.326.501-.549.878-1.208 1.04-1.971l.035-.166a5.112 5.112 0 0 0 2.379-4.232 20.762 20.762 0 0 0-.073-1.976c.128.006.256.013.387-.012l.417-.081c.557-.107.937-.598 1.053-1.136 1.713-.846 3.279-1.886 4.586-3.2.089-.009.178-.02.273-.044 1.773-.47 2.804-1.806 3.617-3.372.888-1.713 1.902-3.115 3.417-4.33.593-.476.618-1.089.345-1.587 2.318-2.953 4.292-6.267 5.958-9.388.38-.184.68-.53.844-.96a5.47 5.47 0 0 1 .476-.813c.379-.458.539-.573 1.019-.848.44-.253.656-.619.711-1.002.01-.011.02-.015.03-.026.024-.027.043-.056.067-.083l.373.043c.814.096 1.5-.754 1.5-1.5 0-.5-.223-.878-.558-1.133" fill="url(#c)"/><path d="M34.625-98.553c-1.004.49-2.294.398-3.209-.229s-1.414-1.76-1.24-2.818c.173-1.059.96-1.96 1.915-2.531.955-.57 2.069-.851 3.175-1.061l.015.572M32.08-95.355c-2.18.254-3.824 2.483-3.277 4.446.547 1.962 3.152 3.186 5.195 2.439M-30.247-104.94c2.206-.134 4.302 1.668 4.185 3.599-.116 1.931-2.417 3.531-4.594 3.194M-28.942-94.039c1.893-.101 3.664 1.444 3.48 3.037-.183 1.593-2.273 2.821-4.108 2.414M-47.026-98.808l.123 1.299c1.515-.158 3.123.075 4.373.948 1.249.872 2.051 2.466 1.715 3.952s-1.987 2.627-3.44 2.169l.009 3.637M-75.889-87.786c1.623.018 3.148 1.078 3.603 2.506s-.195 3.113-1.536 3.982M-78.482-96.334c1.31-.306 2.793.364 3.385 1.531.592 1.166.233 2.71-.819 3.524M-91.183-89.948a4.096 4.096 0 0 1 3.354 1.78M-86.819-87.19c1.237-.839 3.205-.725 4.301.248 1.096.974 1.167 2.671.155 3.71M85.566-91.704c-1.147 1.601-1.684 3.718-1.456 5.743l1.134.318" stroke="#000" stroke-miterlimit="10" fill="none"/><path d="M84.813-85.819c.567 1.303.203 2.855.709 4.182.587 1.543 2.434 2.48 4.026 2.044M77.228-96.354c-1.097.53-1.675 1.941-1.265 3.088s1.751 1.872 2.935 1.587M47.327-102.29l-.192 3.042c-1.626-.517-3.533-.209-4.791.963-1.257 1.173-1.708 3.227-.886 4.748.864 1.597 3.059 2.267 4.641 1.416a2994.46 2994.46 0 0 1-.205 3.085M-77.392-95.125c.33.359.491 1.107.376 1.741-.116.634-.499 1.098-.891 1.08M-75.34-85.715c.62.217 1.036.799.977 1.368s-.588 1.08-1.243 1.201M76.365-87.643c-1.253-.082-2.496.847-2.773 2.071-.278 1.225.444 2.598 1.61 3.064M-64.488-83.757l20.552-2.757-.88.193M46.39-88.291l20.403 3.226M16.566-102.3c3.86 2.282 4.261 6.172.895 8.692M-16.39-102.06c-3.061 1.771-3.031 5.704.065 8.361M-11.523-103.85v-1.032 2.408M-11.463-94.184v3.927M11.997-94.184l.5 1.667M12.497-103.85v-1.032 2.408M-72.837-151.15c.193.819.032 1.688-.304 2.461-.335.774-.837 1.466-1.351 2.14-.472.619-.979 1.248-1.678 1.61M-70.666-151.74l1.32 1.237c.312.292.626.586.98.826.456.309.971.524 1.481.736.809.337 1.658.681 2.533.604-1.416 1.673-1.552 4.065-1.59 6.245-.015.869-.025 1.742.083 2.605.136 1.085.455 2.138.774 3.185.71 2.337 1.422 4.681 2.405 6.919a31.026 31.026 0 0 0 3.27 5.71c1.101 1.522 2.345 2.948 3.769 4.181.943.816 2.041 1.575 3.293 1.651M-76.492-144.75c1.176-.255 2.394.449 3.102 1.423.707.973 1.012 2.174 1.303 3.342.414 1.666.827 3.332 1.203 5.007.095.426.188.854.281 1.281l.411 1.885a.51.51 0 0 0-.103-.202" stroke="#000" stroke-miterlimit="10" fill="none"/><path d="M-70.281-132.41c.716 4.911 5.616 12.291.53 16.435-3.778 3.079-9.776.079-13.044-2.364-4.275-3.195-7.549-7.794-9.517-12.735-1.149-2.885-2.922-8.823 1.731-9.579-2.332.183-5.625-.092-7.011-2.27M-114.41-131.14c-.258 2.661.565 5.34 1.891 7.69 1.326 2.351 3.138 4.412 4.99 6.407 2.503 2.695 5.145 5.335 8.346 7.23.678.401 1.385.771 2.15.981.866.238 1.778.267 2.679.253 1.341-.019 2.796-.175 3.77-1.061.892-.812 1.18-2.093 1.042-3.266s-.644-2.273-1.137-3.355a298.885 298.885 0 0 1-5.788-13.571c-1.108-2.788-2.362-5.813-5.059-7.297M-101.75-137.13c.333-.04.606-.263.858-.477.427-.363.866-.739 1.118-1.231.171-.336.247-.71.285-1.082a5.737 5.737 0 0 0-.388-2.71M-114.26-131.35c-.485.096-.983.189-1.471.108-.325-.054-.631-.182-.934-.31-.498-.209-1.003-.423-1.422-.764-.356-.288-.636-.658-.912-1.023l-.544-.719M-122.76-133.76a23.436 23.436 0 0 1-.758 7.124c4.116-.57 6.18 3.761 7.705 7.113 2.206 4.85 5.317 7.688 8.601 11.671" stroke="#000" stroke-miterlimit="10" fill="none"/><path d="M-107.44-108.01c.539.392.994.892 1.538 1.277.313.221.652.402.985.591 2.673 1.51 5.053 3.519 7.813 4.861M-86.326-75.643s52.767-10.082 71.733-10.707c18.965-.625 32.702-.098 33.708-.108 18.996-.181 69.35 8.978 69.35 8.978" stroke="#000" stroke-miterlimit="10" fill="none"/><path d="M-50.511-96.8c-.139-.017-.277-.036-.43-.014l-10.105 1.458c-.102.015-.178.054-.264.084-.705-.422-1.723-.329-2.161.547-.319.257-.541.655-.534 1.211l.058 4.827c.015 1.238 1.114 1.732 1.993 1.492h.036l12.025-1.158a1.52 1.52 0 0 0 .972-.468c.677-.255 1.188-.931.913-1.865-.469-1.593-.416-3.107.121-4.673.59-1.719-1.625-2.571-2.624-1.441M62.882-96.719a1.47 1.47 0 0 0-.443-.146l-8.223-1.295c-.042-.007-.079.001-.121-.002-.31-.58-1.125-.865-1.724-.7-.037.01-.058.035-.093.047-.824-.721-2.518-.356-2.558 1.09l-.139 4.88c-.519.854-.108 2.323 1.227 2.403 2.929.175 5.783.665 8.609 1.453.411.114.765.057 1.055-.097.262.223.597.364.962.366l.249.002c.749.899 2.643.583 2.696-.947l.196-5.625c.038-1.073-.867-1.546-1.693-1.429" fill="#6f9683"/><path d="M9.03-100.16c.434-.9.005-2.236-1.3-2.223l-9.62.099a1.443 1.443 0 0 0-.944.335 1.412 1.412 0 0 0-.584-.263c-1.583-.311-3.985-.227-4.422 1.789-.307 1.416.042 2.991.341 4.467-.212.626-.03 1.415.54 1.833.343.378.884.464 1.39.317l11.963.594c.474.024.831-.138 1.075-.395.838.123 1.763-.355 1.727-1.439-.056-1.705-.11-3.41-.167-5.114M-87.894-81.538c-.004-1.808-.652-3.427-1.806-4.803a1.143 1.143 0 0 0-.178-.164v-.345c0-.818-.683-1.5-1.5-1.5-.818 0-1.5.682-1.5 1.5v.458c-.351.186-.628.493-.687.893-.202 1.352-.635 2.86-.021 4.162.602 1.277 1.905 1.636 3.197 1.721.885.516 2.323.106 2.323-1.234v-.008c.1-.194.173-.411.172-.68M94.946-89.162c.041-.53-.159-.909-.469-1.146l.178-.574c.474-1.521-1.394-2.32-2.394-1.538-.092.018-.185.04-.283.077-2.531.97-2.821 3.817-3.023 6.352a1.443 1.443 0 0 0-.152.64l.005.987-.014.128c-.027.21-.009.394.035.558l.007.453c.007.41.182.779.454 1.052.196.496.637.885 1.332.885.855 0 1.327-.587 1.426-1.24.127-.067.252-.147.371-.26 1.833-1.749 2.337-3.933 2.527-6.374" fill="#e62d2b"/><path d="M-62.34-92.113c.575.65.072 1.89.817 2.356.25.156.569.162.869.16a61.864 61.864 0 0 0 5.821-.303M-50.412-92.184l.052-2.885M-31.153-99.384c.528.28 1.211.031 1.611-.412.401-.443.585-1.035.758-1.606.079-.259.157-.537.075-.795-.082-.257-.398-.456-.629-.316M-29.45-90.757c.179.507.962.556 1.338.173.376-.384.405-.997.272-1.517-.047-.181-.294-.378-.369-.207M32.378-92.654c-.337.534-.339 1.261-.004 1.796s.989.852 1.616.783M33.33-102.18l.008 1.653a3.076 3.076 0 0 0 1.659.356M76.254-85.468a1.607 1.607 0 0 0 .081 1.643c.325.476.928.747 1.5.673M78.993-95.661c-.639-.194-1.387.515-1.14 1.136l1.945.91M-118.56-144.61c1.696 4.562.158 9.343-3.434 10.678s-7.879-1.281-9.575-5.843c-1.695-4.562-.158-9.342 3.434-10.677 3.593-1.336 7.879 1.28 9.575 5.842zM-95.414-154.77c1.891 5.086.511 10.292-3.081 11.627s-8.037-1.705-9.928-6.792c-1.89-5.086-.511-10.292 3.081-11.627 3.593-1.335 8.037 1.706 9.928 6.792zM-66.629-162.48c.939 5.223-1.536 10.038-5.527 10.756-3.992.718-7.99-2.934-8.929-8.156-.939-5.223 1.536-10.038 5.528-10.756 3.991-.718 7.989 2.933 8.928 8.156zM-35.377-167.56c.435 5.621-2.49 10.432-6.534 10.745-4.043.313-7.675-3.99-8.11-9.611s2.49-10.431 6.534-10.745c4.044-.313 7.675 3.99 8.11 9.611zM6.774-171.4c.31 5.405-2.72 9.976-6.77 10.209-4.048.233-7.582-3.96-7.893-9.365-.312-5.406 2.719-9.976 6.768-10.209s7.584 3.96 7.895 9.365zM50.841-166.92c-1.058 5.199-4.987 8.788-8.776 8.017s-6.003-5.611-4.945-10.809c1.058-5.199 4.987-8.788 8.776-8.017s6.003 5.61 4.945 10.809zM81.54-159.94c-1.516 5.084-5.748 8.31-9.454 7.205-3.705-1.105-5.48-6.121-3.965-11.205 1.516-5.084 5.748-8.31 9.454-7.205 3.705 1.104 5.481 6.121 3.965 11.205zM108.76-152.65c-1.516 5.084-5.748 8.31-9.454 7.205-3.705-1.105-5.48-6.121-3.965-11.205 1.516-5.084 5.748-8.31 9.454-7.205 3.705 1.104 5.481 6.121 3.965 11.205zM-91.626-88.622c1.104.219 1.727 1.364 2.2 2.386l.694 1.497c.433.936.875 1.912.857 2.943-.017 1.031-.642 2.13-1.652 2.336M-90.466-89.816l-.13.106c.425.042.801.291 1.13.562.146.121.287.248.428.374l.861.774c.169.151.337.303.495.466.249.259.469.547.654.857M-86.943-78.446c.803-.18 1.47-.791 1.829-1.531s.433-1.595.327-2.411c-.009-.069-.111-.144-.12-.075" stroke="#000" stroke-miterlimit="10" fill="none"/><path d="M-26.873-101.5c0 1.853-1.581 3.356-3.531 3.356s-3.531-1.503-3.531-3.356 1.581-3.356 3.531-3.356 3.531 1.503 3.531 3.356zM-25.919-91.364c0 1.579-1.446 2.859-3.229 2.859-1.784 0-3.23-1.28-3.23-2.859s1.446-2.859 3.23-2.859c1.783 0 3.229 1.28 3.229 2.859zM38.433-101.72c.01 1.73-1.758 3.142-3.95 3.155-2.192.012-3.976-1.38-3.986-3.109-.01-1.73 1.758-3.142 3.95-3.155 2.191-.013 3.976 1.379 3.986 3.109zM36.758-91.974c0 1.853-1.657 3.356-3.7 3.356-2.044 0-3.7-1.503-3.7-3.356s1.656-3.356 3.7-3.356c2.043 0 3.7 1.503 3.7 3.356zM83.329-94.498c0 1.566-1.581 2.835-3.531 2.835-1.951 0-3.531-1.269-3.531-2.835s1.58-2.835 3.531-2.835c1.95 0 3.531 1.269 3.531 2.835zM80.935-84.631c0 1.57-1.491 2.843-3.331 2.843-1.839 0-3.33-1.273-3.33-2.843s1.491-2.843 3.33-2.843c1.84 0 3.331 1.273 3.331 2.843zM-11.008-104.85h22.88M11.872-104.85v2.667M11.872-102.18h5.187s4.625 4.248 0 8.572h-5.187M11.872-93.612v2.886M11.872-90.726h-22.88M-11.008-90.726v-3.115M-11.008-105.1v2.917M-11.008-102.18h-4.87s-4.75 4.478 0 8.343h4.87M-7.44-102.18H9.123M9.122-102.18v8.343M9.004-93.7H-7.559M-7.44-93.841v-8.343M48.06-102.42l20 4.408M68.185-98.012v2.683M66.622-85.078l.125-3.541M66.747-88.618h4M68.185-95.33h2.25s3.25 3.318 0 6.711M66.997-84.95l-20.563-4.007M46.435-88.958v-3.211M48.06-98.57v-3.851M49.247-90.533l14.687 2.5M63.935-88.117l.688-8.475M64.622-96.591l-14.688-2.915M49.935-99.506l-.687 9.02M-67.628-96.601l20.25-3.312M-64.69-84.43l20.062-2.672M-44.628-87.102v-3.624M-47.378-97.413v-2.813M-47.378-97.413h5.312s3.563 3.148.313 6.574l-2.875.113M-67.628-96.601v3.625M-64.69-84.43v-2.028M-67.628-92.976h-2.813s-2.749 4.489 1.501 6.517h4.25M-63.753-95.207l15.688-1.948M-63.753-95.289v8.238M-64.065-86.88l16.312-1.812M-48.065-88.774v-8.062M48.06-98.57l-4.562-.593s-4.75 2.072-.75 6.755l3.687.239" stroke="#000" stroke-miterlimit="10" fill="none"/><path d="M46.435-95.407c0 .654-.588 1.184-1.312 1.184-.725 0-1.313-.53-1.313-1.184s.588-1.184 1.313-1.184c.724 0 1.312.53 1.312 1.184zM70.06-92.169c0 .654-.588 1.184-1.312 1.184-.725 0-1.313-.53-1.313-1.184s.588-1.184 1.313-1.184c.724 0 1.312.53 1.312 1.184zM-12.814-97.898c0 .654-.588 1.184-1.312 1.184-.725 0-1.313-.53-1.313-1.184s.588-1.184 1.313-1.184c.724 0 1.312.53 1.312 1.184zM17.095-97.898c0 .654-.588 1.184-1.312 1.184-.725 0-1.313-.53-1.313-1.184s.588-1.184 1.313-1.184c.724 0 1.312.53 1.312 1.184zM-42.878-94.223c0 .654-.588 1.184-1.312 1.184-.725 0-1.313-.53-1.313-1.184s.588-1.184 1.313-1.184c.724 0 1.312.53 1.312 1.184zM-66.315-89.816c0 .654-.588 1.184-1.312 1.184-.725 0-1.313-.53-1.313-1.184S-68.352-91-67.627-91c.724 0 1.312.53 1.312 1.184zM-75.215-93.988c.153 1.61-1.297 3.064-3.238 3.249-1.942.185-3.64-.971-3.793-2.581-.153-1.609 1.297-3.064 3.238-3.249 1.942-.184 3.64.971 3.793 2.581zM-72.628-84.553c0 1.785-1.46 3.232-3.261 3.232s-3.261-1.447-3.261-3.232 1.46-3.232 3.261-3.232 3.261 1.447 3.261 3.232zM-5.192-99.139a5.408 5.408 0 0 0 .22 2.326c.07.214.16.435.339.574.216.168.512.179.786.183l9.928.141M6.56-99.601v1.438M52.024-95.721l-.218 2.448c-.011.125-.019.264.057.365.073.098.204.131.324.157l9.278 2.031M62.214-92.995a3.598 3.598 0 0 0 .479-1.981M94.279-92.604c-1.566-.498-3.334.307-4.342 1.605s-1.373 2.986-1.465 4.627c-.059 1.052-.013 2.133.37 3.114.384.981 1.151 1.856 2.16 2.159" stroke="#000" stroke-miterlimit="10" fill="none"/><path d="M94.319-94.116c-.563-.569-1.436-.664-2.235-.714-.791-.05-1.657-.067-2.286.416-.556.426-.8 1.154-1.315 1.63-.631.583-1.553.694-2.338 1.044a4.052 4.052 0 0 0-2.315 3.056c-.105.723.055 1.574.682 1.949.216.13.469.19.685.321.696.42.786 1.397.647 2.198-.139.8-.425 1.625-.193 2.404.211.709.807 1.225 1.376 1.698.671.56 1.37 1.134 2.211 1.374" stroke="#000" stroke-miterlimit="10" fill="none"/><path d="M87.401-88.034a.464.464 0 0 0 .173-.328c.036-.292-.121-.591-.366-.756a1.073 1.073 0 0 0-.848-.132.291.291 0 0 0-.13.059.332.332 0 0 0-.079.133c-.104.264-.182.624.053.783.085.058.192.07.291.098.307.087.646.328.906.143zM-85.026-82.494c1.085.353 2.394-.326 2.731-1.417.087-.284.116-.585.115-.883 0-.735-.188-1.499-.681-2.045-.54-.598-1.386-.856-2.191-.819-.804.038-1.575.34-2.287.715" stroke="#000" stroke-miterlimit="10" fill="none"/><path d="M-86.039-84.705c.093.17.251.293.414.396.42.265.94.424 1.415.282s.851-.66.711-1.135c-.133-.451-.624-.677-1.063-.844-.299-.114-.623-.228-.93-.139-.39.113-.627.535-.646.941a.951.951 0 0 0 .099.499zM-128.09-151.78c0 1.238-.933 2.241-2.084 2.241-1.152 0-2.085-1.003-2.085-2.241s.933-2.241 2.085-2.241c1.151 0 2.084 1.003 2.084 2.241zM-104.33-163.43c0 1.238-.933 2.241-2.084 2.241-1.152 0-2.085-1.003-2.085-2.241s.933-2.241 2.085-2.241c1.151 0 2.084 1.003 2.084 2.241zM-74.085-172.78c0 1.131-.933 2.048-2.084 2.048-1.152 0-2.085-.917-2.085-2.048s.933-2.048 2.085-2.048c1.151 0 2.084.917 2.084 2.048zM-42.646-179.42c0 1.234-.966 2.234-2.157 2.234-1.192 0-2.157-1-2.157-2.234s.965-2.234 2.157-2.234c1.191 0 2.157 1 2.157 2.234zM1.526-183.01c0 1.238-.933 2.241-2.084 2.241-1.152 0-2.085-1.003-2.085-2.241s.933-2.241 2.085-2.241c1.151 0 2.084 1.003 2.084 2.241zM48.497-179.89c0 1.131-1.011 2.048-2.258 2.048-1.248 0-2.259-.917-2.259-2.048s1.011-2.048 2.259-2.048c1.247 0 2.258.917 2.258 2.048zM79.769-173.35c0 1.102-.933 1.996-2.084 1.996-1.152 0-2.085-.894-2.085-1.996s.933-1.996 2.085-1.996c1.151 0 2.084.894 2.084 1.996zM109.11-164.9c0 1.033-.91 1.87-2.033 1.87s-2.033-.837-2.033-1.87.91-1.87 2.033-1.87 2.033.837 2.033 1.87zM131.55-154.63c0 .994-.823 1.799-1.838 1.799s-1.838-.805-1.838-1.799.823-1.799 1.838-1.799 1.838.805 1.838 1.799zM-128.32-140.27c-.514-.543-1.024-1.108-1.333-1.788-.438-.964-.43-2.062-.415-3.121M-121.84-136.3c1.052-.034 1.714-1.155 1.979-2.174.223-.857.314-1.758.173-2.632a7.058 7.058 0 0 0-.336-1.244 11.693 11.693 0 0 0-4.086-5.469" stroke="#000" stroke-miterlimit="10" fill="none"/><path d="M-121.92-138.33c.157.148.371-.11.429-.318.228-.816.417-1.695.149-2.5-.123-.371-.338-.704-.55-1.033a783.06 783.06 0 0 1-.763-1.179M-107.13-158.46l-.294 1.861c-.196 1.239-.393 2.498-.224 3.741.169 1.242.759 2.488 1.822 3.154M-99.421-145.26c1.455.228 2.797-1.075 3.142-2.507.346-1.432-.044-2.928-.458-4.342-.679-2.319-1.492-4.719-3.237-6.391" stroke="#000" stroke-miterlimit="10" fill="none"/><path d="M-99.17-148.25c.703-.234.948-1.107.946-1.848a5.994 5.994 0 0 0-1.399-3.806M-77.107-166.82c-.418.205-.682.625-.89 1.041a8.574 8.574 0 0 0-.719 5.507 7.363 7.363 0 0 0 1.518 3.219.263.263 0 0 0 .021-.214M-72.34-156.69a1.218 1.218 0 0 0 1.267-.736c.093-.236.108-.494.122-.748.1-1.857.186-3.8-.587-5.492" stroke="#000" stroke-miterlimit="10" fill="none"/><path d="M-72.75-153.67a3.161 3.161 0 0 0 2.498-1.272c.614-.839.768-1.92.874-2.954.301-2.949.273-6.202-1.579-8.515M-45.337-174.49c-.845.039-1.424.849-1.811 1.601-.697 1.359-1.211 2.833-1.318 4.357s.214 3.104 1.068 4.371c.055.082.112.162.169.242M-41.518-162.43c.01-.247.248-.411.44-.567.515-.419.831-1.043.994-1.687.163-.643.188-1.313.211-1.976l.049-1.354c.014-.399-.01-.874-.348-1.087" stroke="#000" stroke-miterlimit="10" fill="none"/><path d="M-42.147-159.88a2.81 2.81 0 0 0 1.95-.344c.31-.185.582-.429.835-.687 1.391-1.421 2.264-3.34 2.42-5.323s-.405-4.015-1.557-5.636M-3.296-177.03c-.105-.183-.384-.034-.519.128-2.097 2.513-2.429 6.353-.795 9.189M-.759-163.42c1.236.229 2.545-.234 3.473-1.08.93-.847 1.498-2.041 1.735-3.275.13-.677.165-1.369.201-2.058.106-2.081.206-4.221-.469-6.193" stroke="#000" stroke-miterlimit="10" fill="none"/><path d="M-.184-165.25c.813-.048 1.577-.469 2.14-1.058.564-.589.94-1.335 1.199-2.107a8.562 8.562 0 0 0 .424-3.271M42.269-174.18c-.096-.144-.32-.042-.448.075-1.803 1.656-2.332 4.29-2.35 6.738-.011 1.384.121 2.812.76 4.041.639 1.228 1.878 2.221 3.262 2.23" stroke="#000" stroke-miterlimit="10" fill="none"/><path d="M41.374-169.21c.086.231.023.488-.026.73a5.668 5.668 0 0 0 .721 4.037c.103.168.218.334.375.454a.953.953 0 0 0 .552.199M47.272-163.49c1.162-1.251 1.379-3.105 1.309-4.811-.064-1.579-.356-3.228-1.341-4.464M73.25-168.86c-.284-.021-.534.176-.738.374-1.462 1.417-2.229 3.453-2.357 5.485s.341 4.065 1.069 5.966c.123.322.257.646.474.913.519.636 1.397.824 2.204.972" stroke="#000" stroke-miterlimit="10" fill="none"/><path d="M73.506-166.01c-.884.48-1.119 1.62-1.242 2.619-.127 1.039-.222 2.148.247 3.084.199.398.496.746.857 1.007M78.232-157.94c.674-.789.921-1.848 1.107-2.869.339-1.856.518-3.903-.472-5.51M100.49-160.61c-1.248.835-2.13 2.145-2.633 3.56-.502 1.415-.649 2.934-.643 4.436.006 1.454.242 3.083 1.396 3.969a2.71 2.71 0 0 0 2.167.499" stroke="#000" stroke-miterlimit="10" fill="none"/><path d="M100.64-156.97a4.25 4.25 0 0 0-1.56 3.151c-.012.435.047.88.243 1.269.282.559.815.947 1.364 1.248M104.76-149.73c.359-.253.619-.622.849-.996a11.508 11.508 0 0 0 1.534-7.808M124.58-150.7c-.528-.043-.997.319-1.374.691a9.702 9.702 0 0 0-2.845 6.464c-.042 1.117.129 2.283.753 3.211.623.928 1.773 1.558 2.867 1.328" stroke="#000" stroke-miterlimit="10" fill="none"/><path d="M123.74-147.3c-.277.155-.472.423-.62.703-.427.816-.505 1.765-.538 2.685-.038 1.044.033 2.233.832 2.907.054.046.169.06.164-.01M128.38-141.45c.523-.46.838-1.12.999-1.798s.181-1.381.201-2.077c.033-1.173.049-2.415-.538-3.432-.005-.094-.188.003-.113.06M-3.296-174.85l-.284 5.248M-123.05-127.19c1.888-.254 3.53-1.036 4.293-2.045M-100.88-136.72a20.401 20.401 0 0 0 4.489-.674M-75.252-144.71a7.728 7.728 0 0 0 3.52-.252M-45.502-151.99c2.044.088 4.094.018 6.127-.209M-5.512-155.72l-.5.005 3.623-.166M1.497-155.6l-.499-.014a27.92 27.92 0 0 0 5.006-.187M39.122-152.73l7 .001a.728.728 0 0 1-.482-.153M71.277-146.21l-.363-.268c1.592.009 3.184.007 4.776-.005.096-.001.208-.01.259-.091s-.066-.214-.128-.141M96.484-139.36c1.726-.052 3.442.228 5.146.507M119.51-131.38a9.012 9.012 0 0 0 3.861.8" stroke="#000" stroke-miterlimit="10" fill="none"/><path d="M97.997-102.18c11.059-5.132 16.143-17 22.092-25.568.409-.59.47-.758 1.075-1.157.605-.398 1.304-.637 1.994-.872-.051-1.461-.297-2.792-.347-4.253-.022-.638-.04-1.3.222-1.885M120.28-136.52c-.834 1.427-2.5 2.104-4.048 2.686-.428.16-.861.322-1.315.376.761 1.821.976 3.732.436 5.63-.408 1.439-1.355 2.653-2.281 3.827-3.16 4.007-6.363 8.058-10.406 11.172-1.482 1.142-3.168 2.039-5.07 2.144-.898.049-1.795-.079-2.686-.207-.425-.061-.853-.123-1.258-.264-.483-.168-.92-.443-1.352-.715-2.077-1.309-1.858-4.629-1.365-6.737.482-2.062 1.438-3.978 2.343-5.893a141.067 141.067 0 0 0 4.313-10.143c.191-.503.38-1.009.645-1.478.262-.464.595-.884.926-1.302.589-.744 1.412-1.572 2.329-1.327.039-.466-.193-.949-.361-1.385a29.248 29.248 0 0 1-1.456-5.092M96.475-145.53c-1.159 1.706-2.814 2.221-4.375 3.416 4.058 2.47-.545 10.081-2.078 12.979-2.348 4.438-5.985 9.112-9.971 12.192-.263.204-.556.291-.88.369-.357.086-.726.118-1.092.15-.537.046-1.073.092-1.611.115a18.618 18.618 0 0 1-4.338-.327c-.173-.034-.423-.199-.588-.262-.208-.079-.421-.161-.587-.309-.109-.096-.193-.217-.278-.334-.314-.435-.656-.85-1.024-1.241-.1-.106-.201-.21-.287-.327-.22-.3-.324-.668-.393-1.034M68.973-127.73v7.578M77.047-147.1a8.324 8.324 0 0 0-2.189 1.518c-1.62 1.564-2.532 3.712-3.264 5.842a52.5 52.5 0 0 0-2.621 12.182M76.996-147.14c-.523.178-1.068-.171-1.499-.518-.723-.583-1.417-1.225-1.913-2.011s-.783-1.735-.635-2.652c.006-.039-.07.159-.035.177v-.542M65.611-149.26c.528-.235 1.031-.528 1.534-.821 1.415-.824 2.897-1.715 3.72-3.202M65.931-149.25a5.255 5.255 0 0 1 1.805 2.52c.876 2.585-.232 5.348-1.021 7.96-.79 2.613-1.928 5.105-3.063 7.587-.738 1.612-1.482 3.236-2.508 4.682-.592.835-1.273 1.603-1.958 2.363-1.186 1.317-2.422 2.644-3.945 3.577-.692.424-1.261.697-2.065.656-1.001-.05-1.997.154-3.007.074-1.087-.086-2.181-.387-3.059-1.032M46.669-152.41c-.665-.04-1.252.476-1.745.998-1.066 1.128-2.033 2.459-2.473 4.054-.391 1.413-.344 2.93-.349 4.413-.01 2.672-.204 5.341-.194 8.013.011 2.673.234 5.378 1.025 7.887.792 2.51 2.198 4.823 4.177 6.187M43.157-159.09c-.164.676-.045 1.395.207 2.043.252.647.632 1.236 1.009 1.82l.768 1.187c.413.638.866 1.311 1.565 1.61M40.66-159.42c.101.808-.425 1.547-.925 2.195-.531.69-1.073 1.39-1.783 1.899-.567.407-1.22.678-1.867.945l-.94.388c.777.278 1.36.526 1.812 1.209.349.528.409 1.187.432 1.817.07 1.977-.139 3.952-.377 5.916-.166 1.367-.347 2.736-.697 4.069-.328 1.25-.8 2.459-1.272 3.664-.686 1.752-1.519 3.26-2.326 4.975-.203.432-.407.865-.677 1.26-.241.354-.532.672-.822.989l-1.87 2.044c-.475.52-.95 1.04-1.459 1.527a16.276 16.276 0 0 1-6.482 3.795" stroke="#000" stroke-miterlimit="10" fill="none"/><path d="M4.455-138.44c.654 2.825 1.34 5.722 2.94 8.116.497.746 1.077 1.43 1.62 2.142.425.557.83 1.133 1.292 1.658.926 1.049 2.067 1.869 3.196 2.68.724.52 1.464 1.047 2.31 1.306 1.064.324 2.201.196 3.302.065l2.481-.294" stroke="#000" stroke-miterlimit="10" fill="none"/><path d="M6.905-155.76a2.355 2.355 0 0 0-1.002.217c-1.104.485-1.85 1.578-2.192 2.735s-.333 2.386-.294 3.592c.119 3.676.49 7.343 1.11 10.969M1.15-160.95l2.595 2.885c.3.333.6.666.94.958a5.314 5.314 0 0 0 2.09 1.104M-14.919-122.06c.865-.073 1.64-.549 2.337-1.066 3.234-2.397 5.507-5.885 7.204-9.535.524-1.129 1.002-2.284 1.325-3.486.454-1.694.594-3.454.7-5.205.142-2.333.229-4.67.294-7.007.033-1.169.06-2.338.086-3.507.01-.467.139-1.023-.117-1.407-.255-.383-.822-.7-1.184-.979-.786-.606-1.629-1.236-2.616-1.337M-6.789-155.61c.75-.14 1.437-.584 2.017-1.147s1.062-1.243 1.53-1.929a71.227 71.227 0 0 0 1.63-2.495" stroke="#000" stroke-miterlimit="10" fill="none"/><path d="M-14.593-122.02c-2.964.825-6.243.493-8.974-.909-2.811-1.444-4.961-3.928-6.485-6.666-.618-1.109-1.143-2.264-1.668-3.419l-.984-2.163c-.794-1.746-1.589-3.496-2.179-5.318-.866-2.672-1.281-5.463-1.62-8.248-.063-.516-.123-1.045.002-1.549.125-.503.426-.947.767-1.34a6.847 6.847 0 0 1 2.201-1.677M-40.016-157.46a3.798 3.798 0 0 0 1.568 2.606c.345.241.727.422 1.107.602 1.195.566 2.489 1.147 3.791.917M-43.283-156.81c-.081 2.385-1.453 4.655-3.393 5.616 1.029.377 2.172.716 3.026 1.465.853.749 1.547 1.767 1.826 2.945.179.755.184 1.552.363 2.307" stroke="#000" stroke-miterlimit="10" fill="none"/><path d="M-52.806-117.84l3.232-.09c.447-.013.895-.025 1.337-.094 1.281-.2 2.454-.868 3.426-1.726s1.761-1.901 2.505-2.963c.385-.549.764-1.113.997-1.742.237-.638.316-1.323.394-1.999.163-1.426.059-2.827.047-4.262l-.033-3.676c-.007-.771-.013-1.543-.027-2.314a134.792 134.792 0 0 0-.163-4.67c-.061-1.153-.138-2.314-.429-3.432M97.997-102.18s-20.243-6.39-34-8.495c-5.238-.801-39-3.989-39-3.989-72.597-3.978-121.9 13.447-121.9 13.447-.202-.218-.599-.097-.755.156s-.14.573-.112.869c.117 1.231.36 2.45.724 3.632.068.22.14.44.24.649.245.514.646.934 1.118 1.259.248.17.514.315.788.433.798.344 2.525.877 2.527.997" stroke="#000" stroke-miterlimit="10" fill="none"/><path d="M-94.904-94.223c-.402-1.372 31.027-8.439 31.027-8.439s32.797-7.363 86.5-6.439c0 0 52.5 2 72.75 12.25" stroke="#000" stroke-miterlimit="10" stroke-width="2" fill="none"/><path d="M95.371-96.599c.917.078 1.859-.422 2.3-1.222.754-1.365.018-3.095.422-4.599" stroke="#000" stroke-miterlimit="10" fill="none"/><path d="M87.454-72.218c1.682-1.079 2.174-3.638 1.011-5.263a43.611 43.611 0 0 1 3.822-5.372c.595-.714 1.219-1.42 1.629-2.254.901-1.834.646-3.991.563-6.033s.132-4.325 1.649-5.694M131.43-142.24c-1.866 4.703-6.292 7.36-9.886 5.934s-4.995-6.394-3.13-11.097c1.866-4.704 6.292-7.36 9.887-5.935 3.594 1.426 4.995 6.395 3.129 11.098zM96.432-145.35c.316-.325.573-.706.756-1.121M-92.608-93.272c1.181 1.451 1.347 3.646.396 5.258-.33.56-.777 1.048-1.081 1.623-.301.568-.451 1.201-.578 1.831-.178.892-.308 1.848.045 2.687.518 1.233 1.904 1.839 3.201 2.164 1.297.324 2.695.513 3.74 1.347.148.118.291.252.367.426.094.216.073.462.063.698-.093 2.142.909 4.304 2.605 5.616" stroke="#000" stroke-miterlimit="10" fill="none"/><path d="M84.469-74.384c-.533.438-1.042.905-1.524 1.398 0 0-48.972-9.538-99.479-6.874M-22.583-107.97l.98 21.896M12.33-109.3l-.083 6.489M12.33-93.615l-.083 6.938M19.58-109.37l-.771 22.414M25.269-109.11l-.045 22.264M30.08-108.77l-1.494 22.313M35.192-107.91l-.194 3.377M34.164-97.898v2.569M33.435-88.226l.124 2.15M38.433-108.04l-.954 22.67M43.309-107.66l-.315 8.774M41.908-92.169l-.415 7.033M47.739-107.41v8.324M46.615-91.663v7.688M50.845-106.89l-.002 5.04M51.513-87.473v3.592M54.265-106.41l-.195 5.312M54.265-86.954l-.097 3.42M57.584-106.23v5.799M57.518-86.798l-.24 3.679M60.684-105.58l-.01 5.982M60.674-86.076v3.423M63.256-105.35l.429 6.774M63.891-85.078l.044 3.29M66.595-104.73l.152 6.433M66.622-85.078l.125 3.461M69.698-104.13l.134 9.011M70.06-88.226v7.206M72.23-103.53l-.075 23.233M74.645-102.81l-.527 22.714M76.58-102.85l-.385 15.65M78.951-101.85v4.319M78.903-91.352l.213 4.201M81.718-101.95v4.615M81.718-92.592v13.851M84.023-100.64l-.316 10.308M83.707-86.798l-.056 8.017M86.412-100.17l-.267 8.428M85.633-80.621v2.343M88.576-99.303l-.093 6.519M89.95-98.578l-.152 4.163M92.057-98.186l.027 3.355M93.847-96.714v2.728M87.691-79.579l-.112 1.823M-19.292-114.6l-2.31-3.53M-24.128-113.95l-3.75-4.178M-29.547-113.95l-4.11-3.889M-94.567-102.18l-6.311-3.873M-91.626-102.88l-4.294-3.181M-87.894-103.93l-4.193-2.297M-86.139-104.65l-3.367-2.289M-82.48-105.33l-3.363-2.516M-79.241-106.23l-3.456-2.542M-76.909-106.59l-3.952-2.775M-73.066-107.5l-2.823-2.354M-70.192-107.91l-2.571-2.687M-67.628-108.77l-2.301-2.5M-63.753-109.59l-3.716-3.594M-59.554-110.07l-3.78-3.115M-55.909-110.67l-3.949-3.93M-51.168-111.27l-3.894-3.4M-45.928-112.1l-3.491-3.79M-40.666-112.97l-2.888-2.925M-35.191-113.6l-3.772-3.417M-14.134-114.86l-2.184-2.154M-6.42-115.31l-1.333-1.708M-90.349-96.601l-2.673-3M-93.021-95.83l-2.315-2.74M-87.339-96.939l-3.257-2.974M-85.149-97.526l-3.271-3.386M-80.142-98.808l-3.709-3.666M-77.917-99.352l-2.944-3.122M-75.889-99.698l-1.96-2.595M-73.066-100.53l-2.823-3.113M-71.155-101.5l-1.608-2.022M-67.933-101.52l-3.383-3.423M-64.629-102.38l-2.874-3.408M-62.038-103.04l-2.698-3.078M-58.415-103.93l-3.092-3.008M-55.062-104.58l-2.44-2.917M-52.592-105.33l-1.825-2.162M-47.378-105.43l-2.982-3.147M-42.375-106.04l-2.034-2.729M-38.503-106.94l-1.658-2.176M-33.657-107.4l-2.267-3.263M-28.356-107.85l-2.048-2.219M-23.086-107.85l-1.5-2.816M-16.318-108.77l-2.348-3.335M-9.667-108.67l-1.34-2.953M9.56-109.37l.77-1.733M13.58-109.37l2.986-2.9M20.997-109.37l1.682-2.259M28.371-109.18l2.126-2.446M34.997-108.36l2.857-2.745M41.493-108.04l1.816-2.366M47.11-107.41l1.549-1.962M50.845-106.89l1.285-2.482M54.265-106.41l2.326-2.698M59.472-105.81l1.591-2.317M63.23-105.39l2.096-1.98M67.341-104.73l1.406-2.151M69.832-104.54l2.047-2.348M72.664-104.13l1.454-1.585M75.831-103.33l1.773-1.525M78.801-102.81l1.225-1.314M81.15-101.95l2.179-1.73M83.809-101.1l1.78-1.754M86.815-100.64l1.516-1.744M89.059-99.686l1.541-2.03M90.679-98.882l1.902-1.819M93.304-98.24l1.897-2.4M94.384-97.332l1.744-1.75M96.732-102.81l3.932-4.073M94.252-103.64l3.245-2.765M91.365-104.24l3.019-2.643M89.059-105.1l3.025-2.556M87.454-105.81l2.496-2.317M85.068-106.23l3.493-2.843M82.24-106.89l3.81-2.482M79.798-107.41l2.442-2.322M75.779-108.31l3.23-3.32M72.23-109.37l1.888-1.733M68.698-110.23l2-2.795M63.47-111.1l3.526-3M58.377-110.87l2.991-3.457M53.414-111.68l3.681-3.042M48.362-112.39l3.125-2.865M44.185-113.2l1.346-2.964M36.758-113.83l2.203-2.337M31.435-114.1l2.063-2.197M26.663-114.51l.834-1.654M21.838-116.16l-.122.905M9.197-114.99v-1.303M-14.593-86.351v-7M-14.919-102.56v-6.114M-46.793-105.56l.232 8.231M-42.968-90.544l.179 7.425M-51.19-105.35l.044 6M-56.08-104.24l.171 5.724M-59.961-103.75l.102 6.141M-64.283-102.57l-.107 5.31M-90.596-95.721l.13 5.904M-88.812-97.057v7.581M-82.975-83.229l.364 6.547M-63.753-83.8v3.944M-59.659-84.364l.001 3.902M-56.005-84.623v3.523M-51.919-85.244v3.59M-83.47-97.401l.581 10.059M-84.233-82.388l.072 6.093M-81.165-91.617l.609 14.581M-80.142-98.808v2.082M-77.917-99.352v2.626M-75.003-99.352l.191 11.879M-76.647-90.985v3.199M-79.15-90.776l.419 13.627M-76.98-81.788v4.526M-75.51-81.1l.306 3.264M-73.342-81.474l.276 3.123M-65.961-86.829l-.257 7.226M-66.112-101.99l.096 5.162M-87.339-96.939l.52 9.749M-85.149-97.526l.098 9.869M-72.725-100.53l1.166 22.313M-68.94-86.458l-.043 7.574M-67.933-101.52v9.006M-69.929-93.412l-.263-8.303M-39.344-106.97l.762 23.623M-35.432-106.26l.85 22.126M-30.404-107.5v2.646M-30.404-98.139v3.916M-30.404-88.652v3.408M-43.375-97.332v-8.786M-79.15-73.079s40.837-6.328 62.616-6.782M33.662-79.594l.803-3.546M44.56-78.575l.961-3.207M48.06-77.923l1.875-3.865M51.987-77.599l2.109-4.183M54.216-77.189l2.052-4.285M57.631-77.097l1.676-4.377M59.814-76.516l2.184-4.285M65.003-75.679l2.344-4.964M67.622-75.679l2.016-4.58M70.387-75.288l2.934-4.502M72.863-74.802l3.203-4.631M75.273-74.517l3.113-4.579M78.012-73.691l2.8-4.884M80.492-73.469l2.787-4.81M84.733-71.896l4.049-5.031M37.209-79.157l1.553-3.723M40.956-78.773l.968-3.378M-11.523-79.552v-4.205M-17.495-80.042l.003-3.826M-22.583-79.687v-3.847M-28.356-79.342l-.253-3.407M-31.698-79.349l-.968-3.384M-36.172-78.389l-.805-4.226M-38.963-78.446l-1.422-3.599M-41.423-78.139l-2.768-3.649M-44.19-77.835l-2.235-3.433M-47.062-77.258l-2.716-3.335M-50.058-77.036l-2.723-3.295M-52.869-76.57l-2.133-3.286M-55.656-76.682l-2.222-3.231M-57.884-76.295l-2.077-3.257M-60.878-75.947l-1.875-3.182M-63.387-75.332l-1.511-3.433M-65.322-75.116l-1.774-3.101M-67.503-75.024l-2-3.199M-69.929-74.593l-2.268-3.168M-72.176-73.98l-2.056-3.758M-74.812-74.041l-1.835-3.394M-76.843-73.641l-1.887-3.382M-79.15-72.807l-1.829-3.571M-81.689-72.223l-2.208-3.637M10.997-80.066l-.167-3.801M17.747-80.33l-.083-3.551M22.679-79.912l.818-3.435M27.897-79.525l1.578-3.576M62.488-76.528l2.099-4.093M-85.578-79.286l.295 3.049" stroke="#020202" stroke-miterlimit="10" fill="none"/><path d="M-78.534-73.08c-.169-.057-.378-.021-.559.019-1.394.308-2.664.79-3.922 1.268l-.835.317" stroke="#020202" stroke-miterlimit="10" fill="none"/><path d="M85.028-73.978c.028-.034-.146-.096-.354-.136l.177-.534c.112-.015.201-.039.202-.084l.002-.031c.001-.021-.016-.04-.044-.056.012-.014.027-.028.011-.048l-.129-.165c-.105-.133-.915-.192-.983-.012l-.115.305c-.198.125-.522.031-.743.187-.251.177-.325.409-.249.663l-.012.027h-.029c-.039.004-.248.043-.239.097-.09.023-.166.06-.049.117l.214.104a.834.834 0 0 0 .273.062c.121.059.25.095.382.119.034.014.087.018.134.027l.007.07c.001.01.04.015.091.02l-.014.048c.021-.072.973.129.999.043l.14-.464c-.005.015-.058.017-.13.012.174-.101.336-.221.458-.371" fill="#e7bd50"/><path d="M82.81-72.601l3.75-5.155" stroke="#020202" stroke-miterlimit="10" fill="none"/><path d="M-97.34-71.243l200.03-1.141 2.8 231.49s.2 15.3-21.498 15-63.298-.7-63.298-.7-13.8-.8-18.1 10.999c0 0-4.8-10.999-13.6-10.199" stroke="#000" stroke-miterlimit="10" fill="#e62d2b"/><path d="M-96.872-71.184l2.8 230.09s-1.415 12.896 10.252 15.146l76.245.154" stroke="#000" stroke-miterlimit="10" fill="#e62d2b"/><path d="M-80.009-52.08h47.898v10.9h-47.898zM-80.009-52.08h47.898M-32.111-52.08v10.9M-32.111-41.18h-2.7M-80.009-52.08v10.9M-80.009-41.18h3.5" stroke="#040203" stroke-miterlimit="10" fill="#f9f7f8"/><path d="M-34.81-41.18h-41.699s2.328 2.239 2.453 3.614-.25 17-.25 17-4 7.875-4.75 8.25 0 43.75 0 43.75h46.946v-43.375s-4.946-8.125-4.696-9-.375-17.375-.375-17.375.742-2.864 2.371-2.864" fill="#f9f7f8"/><path d="M-34.81-41.18h-41.699s2.328 2.239 2.453 3.614-.25 17-.25 17-4 7.875-4.75 8.25 0 43.75 0 43.75h46.946v-43.375s-4.946-8.125-4.696-9-.375-17.375-.375-17.375.742-2.864 2.371-2.864z" stroke="#040203" stroke-miterlimit="10" fill="none"/><path d="M-73.65-37.448h36.898M-50.431-32.318h-23.228M-67.4-19.073h5.125" stroke="#040203" stroke-miterlimit="10" stroke-width=".75" fill="#fff"/><path d="M-67.4-19.365v-8.738s2.625-2.184 5.125 0v8.738" stroke="#040203" stroke-miterlimit="10" stroke-width=".75" fill="#1d1d1d"/><path d="M-73.755-26.941h6.355M-44.494-26.941h8.076M-66.837-10.323l35.134-.125M-78.983-4.63h24.021M-31.704-.073l-18.727-.125M-78.964 5.364h17.939M-49.087 5.364h17.384M-78.924 10.677h14.087M-66.837 15.864h-12.034M-42.483 15.864h10.779M-65.4 21.552h-13.402M-43.649 21.052h11.946M-41.9 26.302h10.196M-66.837 26.302h-11.897M-64.837-40.937v6.613M-55.837-32.318v-8.619M-45.65-32.318v-8.619M-55.837-26.941v5.492M-55.837-21.448h-6.437M-55.837-21.448h6.437M-44.494-21.448h7.692M-67.9-21.448h-6.773M-55.343-15.622v5.174M-45.65-15.433v4.985M-64.837-10.323v-5.11M-69.525-4.63v-5.693M-69.525 5.364V-.073M-69.525 15.864v-5.062M-69.525 26.302v-4.75M-64.837 10.677V5.365M-64.837-.073v-4M-61.025-4.63v-5.693M-59.837-15.433v-6.015M-61.025-26.941v-5.377M-51.087-26.941v-5.377M-51.087-15.622v-5.826M-51.087-4.63v-5.693M-45.65-.198V-4.63M-41.15-4.63v-5.693M-41.15 5.364V-.073M-55.343-4.63v4.432M-40.648 15.864v-5.062M-36.418 26.302v5.375M-61.65-40.937v-5.793M-48.275-40.937v-5.45M-36.802-40.937v-5.793M-74.4-40.937v-5.45M-66.9-46.569v-5.268M-70.668-46.567l-.021-5.272M-57.275-46.73v-5.107M-53.275-46.73v-5.299M-79.602-46.387h47.898M-41.15-46.387v-5.45" stroke="#040203" stroke-miterlimit="10" stroke-width=".75" fill="#fff"/><path d="M-49.212-19.073v-9s2.625-2.25 5.125 0v9" stroke="#040203" stroke-miterlimit="10" stroke-width=".75" fill="#1d1d1d"/><path d="M-49.212-19.073h5.125M-59.056-26.941h9.844M-45.104 10.677l13.401.125" stroke="#040203" stroke-miterlimit="10" stroke-width=".75" fill="#fff"/><path d="M-79.602-49.948h5.202M-79.602-48.073h4.577M-79.602-44.823c0 .125 3.952 0 3.952 0M-79.602-42.698h3.751M-73.634-34.324h5.734M-73.634-29.629h5.734M-73.755-23.448h3.899M-75.851-17.448h5.857M-79.347-7.477h8.568M-79.602-2.414h5.847M-79.602 1.802h5.968M-78.983 7.302h8.204M-78.894 13.802h6.732M-78.802 18.427h8.022M-78.735 23.552h6.921M-78.68 29.808h5.047M-78.68 27.802h6.866M-79.347-11.862h8.013M-58.775 31.677V9.552M-55.653 31.677l-.184-25.25M-53.275 6.76v24.916M-50.212 31.677V11.24M-61.65 28.989h13.375M-47.837 25.552H-61.65M-60.379 11.632l10.274.168M-61.65 16.552h13.375M-47.994 19.927H-61.65M-61.65 22.677l13.375-.125M-31.704-49.948h-5.973M-31.704-48.073h-4.871M-31.704-44.823h-3.946M-31.704-42.698h-3.946M-36.641-34.324h-7.853M-44.686-29.629h8.076M-36.748-22.692h-4.802M-35.014-17.448h-6.136M-31.704-8.198h-6.473M-31.704-2.414h-5.973M-31.704 2.645h-6.378M-32.15 7.302h-4.701M-31.704 13.802h-6.378M-31.704 18.427h-5.973M-31.704 22.552h-6.378M-31.704 28.989h-3.31" stroke="#040203" stroke-miterlimit="10" stroke-width=".25" fill="#fff"/><path d="M-71.814-37.448v-1.937M-71.814-39.386h1.035M-70.779-39.386v-1.25M-67.9-37.448v-1.562M-67.9-39.011h-.875M-68.775-39.386v-1.25M-61.025-37.448v-1.937M-61.025-39.386h-1.25M-62.275-39.386v-1.25M-57.962-37.948v-1.437M-57.962-39.386h.687M-57.618-39.386h.656M-56.962-39.386v-1.25M-53.275-37.448v-1.937M-53.275-39.386h-1.187M-54.462-39.386v-1.25M-46.65-37.448v-1.562M-46.65-39.011h-1.625M-48.275-39.011v-1.625M-51.06-39.011h1.258M-49.772-39.011l-.005-1.625M-51.06-39.011l-.027 1.562M-41.9-37.698v-1.312M-41.9-39.011h-1.375M-43.275-39.386v-1.25M-40.034-37.698v-.969M-40.034-38.667h1.509M-38.525-39.011v-1.625" stroke="#040203" stroke-miterlimit="10" stroke-width=".75" fill="#fff"/><path d="M-61.587 31.433l.125-18.632M-61.462 12.802h-5.375M-66.837 12.802v4.75M-66.837 17.552h5.25M-65.212 17.552v4.937M-65.212 22.489h3.75M-65.212 22.489h-1.625M-66.837 22.489v4.812M-66.837 27.302h5.375M-65.212 27.302v4.132M-48.212 31.433V12.801M-48.212 12.802h5.375M-42.837 12.802v4.75M-42.837 17.552h-5.375M-43.587 17.552v4.937M-43.587 22.489h-4.625M-43.587 22.489h1.5M-42.087 22.489v4.812M-42.087 27.302h-6.125M-43.587 27.302v4.375M-61.462 5.552l3.92 2.907M-61.462 12.802l5.867-6.5M-66.025 12.802l5.062-7.375M-43.587 12.802l-5.5-7.25M-48.212 14.177l-5.375-7.875M-53.587 6.302h-2.008M-49.087 5.552l-2.813 3.22M-49.087 5.552v-1.75M-61.462 6.155v-2.38M-61.476 3.775l6.899-3.571M-49.087 3.802L-54.591.177" stroke="#000" stroke-miterlimit="10" stroke-width=".75" fill="#fff"/><path d="M-62.275-.198l-17.115.125M-34.026-15.582h-42.975M-49.087-4.63h16.977M-51.087-32.318h14.513" stroke="#040203" stroke-miterlimit="10" stroke-width=".75" fill="none"/><path d="M-33.054-13.548h-7.231M-78.983-9.88h6.882" stroke="#040203" stroke-miterlimit="10" stroke-width=".25" fill="none"/><path d="M-32.15-6.359h-5.587M-77.727-14.109h7.395M-74.209-25.344l4.808-.03M-73.951-35.859h5.734M-43.65-35.859h6.283M-42.146-19.609h5.734M-74.672-19.609h5.734M-37.557-11.862h5.734M-37.367 9.114h5.734M-79.085 9.114h5.734M-79.376 3.775h5.734M-36.85 24.873h4.503M-37.093-24.942h-5.495" stroke="#040203" stroke-miterlimit="10" stroke-width=".25" fill="#fff"/><path d="M-48.212 14.177h-13.375" stroke="#040203" stroke-miterlimit="10" stroke-width=".25" fill="none"/><path d="M-69.828-53.74h2.106v6.65h-2.106zM-56.398-53.74h2.282v6.65h-2.282z" stroke="#e62d2b" stroke-miterlimit="10" fill="#e62d2b"/><path d="M-43.646-53.27l1.649-.007.025 6.18-1.649.007z" fill="#e62d2b"/><path d="M-43.646-53.27l1.649-.007.025 6.18-1.649.007z" stroke="#e62d2b" stroke-miterlimit="10" fill="none"/><path d="M-44.494-46.478v-5.268" stroke="#040203" stroke-miterlimit="10" stroke-width=".75" fill="#fff"/><path d="M35.822-52.911H83.72v10.9H35.822zM35.822-52.911H83.72M83.72-52.911v10.9M83.72-42.011h-2.7M35.822-52.911v10.9M35.822-42.011h3.5" stroke="#040203" stroke-miterlimit="10" fill="#f9f7f8"/><path d="M81.021-42.011H39.322s2.328 2.239 2.453 3.614-.25 17-.25 17-4 7.875-4.75 8.25 0 43.75 0 43.75h46.946v-43.375s-4.946-8.125-4.696-9-.375-17.375-.375-17.375.742-2.864 2.371-2.864" fill="#f9f7f8"/><path d="M81.021-42.011H39.322s2.328 2.239 2.453 3.614-.25 17-.25 17-4 7.875-4.75 8.25 0 43.75 0 43.75h46.946v-43.375s-4.946-8.125-4.696-9-.375-17.375-.375-17.375.742-2.864 2.371-2.864z" stroke="#040203" stroke-miterlimit="10" fill="none"/><path d="M42.181-38.279h36.898M65.4-33.148H42.172M48.431-19.904h5.125" stroke="#040203" stroke-miterlimit="10" stroke-width=".75" fill="#fff"/><path d="M48.431-20.196v-8.738s2.625-2.184 5.125 0v8.738" stroke="#040203" stroke-miterlimit="10" stroke-width=".75" fill="#1d1d1d"/><path d="M42.076-27.771h6.355M71.338-27.771h8.076M48.994-11.154l35.134-.125M36.848-5.461h24.021M84.128-.904L65.401-1.03M36.867 4.533h17.939M66.744 4.533h17.384M36.907 9.846h14.087M48.994 15.033H36.96M73.348 15.033h10.779M50.431 20.721H37.029M72.182 20.221h11.946M73.931 25.471h10.196M48.994 25.471H37.097M50.994-41.768v6.613M59.994-33.148v-8.619M70.181-33.148v-8.619M59.994-27.771v5.492M59.994-22.279h-6.437M59.994-22.279h6.437M71.338-22.279h7.692M47.931-22.279h-6.773M60.488-16.453v5.174M70.181-16.264v4.985M50.994-11.154v-5.11M46.306-5.461v-5.693M46.306 4.533V-.905M46.306 15.033V9.97M46.306 25.471v-4.75M50.994 9.846V4.534M50.994-.904v-4M54.806-5.461v-5.693M55.994-16.264v-6.015M54.806-27.771v-5.377M64.744-27.771v-5.377M64.744-16.453v-5.826M64.744-5.461v-5.693M70.181-1.03V-5.46M74.681-5.461v-5.693M74.681 4.533V-.905M60.488-5.461v4.432M75.184 15.033V9.97M79.414 25.471v5.375M54.181-41.768v-5.793M67.556-41.768v-5.45M79.029-41.768v-5.793M41.431-41.768v-5.45M48.931-47.4v-5.268M45.163-47.398l-.021-5.272M58.556-47.561v-5.107M62.556-47.561v-5.299M36.229-47.218h47.898M74.681-47.218v-5.45" stroke="#040203" stroke-miterlimit="10" stroke-width=".75" fill="#fff"/><path d="M66.619-19.904v-9s2.625-2.25 5.125 0v9" stroke="#040203" stroke-miterlimit="10" stroke-width=".75" fill="#1d1d1d"/><path d="M66.619-19.904h5.125M56.775-27.771h9.844M70.727 9.846l13.401.125" stroke="#040203" stroke-miterlimit="10" stroke-width=".75" fill="#fff"/><path d="M36.229-50.779h5.202M36.229-48.904h4.577M36.229-45.654c0 .125 3.952 0 3.952 0M36.229-43.529h3.751M42.197-35.155h5.734M42.197-30.46h5.734M42.076-24.279h3.899M39.98-18.279h5.857M36.484-8.308h8.568M36.229-3.245h5.847M36.229.97h5.968M36.848 6.47h8.204M36.937 12.971h6.732M37.03 17.596h8.022M37.096 22.721h6.921M37.15 28.977h5.047M37.15 26.971h6.866M36.484-12.693h8.013M57.056 30.846V8.721M60.178 30.846l-.184-25.25M62.556 5.929v24.917M65.619 30.846V10.409M54.181 28.158h13.375M67.994 24.721H54.181M55.452 10.801l10.274.168M54.181 15.721h13.375M67.838 19.096H54.182M54.181 21.846l13.375-.125M84.128-50.779h-5.973M84.128-48.904h-4.871M84.128-45.654h-3.946M84.128-43.529h-3.946M79.19-35.155h-7.853M71.146-30.46h8.076M79.083-23.523h-4.802M80.817-18.279h-6.136M84.128-9.03h-6.473M84.128-3.245h-5.973M84.128 1.815H77.75M83.681 6.47H78.98M84.128 12.971H77.75M84.128 17.596h-5.973M84.128 21.721H77.75M84.128 28.158h-3.31" stroke="#040203" stroke-miterlimit="10" stroke-width=".25" fill="#fff"/><path d="M44.017-38.279v-1.937M44.017-40.217h1.035M45.052-40.217v-1.25M47.931-38.279v-1.562M47.931-39.842h-.875M47.056-40.217v-1.25M54.806-38.279v-1.937M54.806-40.217h-1.25M53.556-40.217v-1.25M57.869-38.779v-1.437M57.869-40.217h.687M58.213-40.217h.656M58.869-40.217v-1.25M62.556-38.279v-1.937M62.556-40.217h-1.187M61.369-40.217v-1.25M69.181-38.279v-1.562M69.181-39.842h-1.625M67.556-39.842v-1.625M64.771-39.842h1.258M66.059-39.842l-.005-1.625M64.771-39.842l-.027 1.562M73.931-38.529v-1.312M73.931-39.842h-1.375M72.556-40.217v-1.25M75.798-38.529v-.969M75.798-39.498h1.509M77.306-39.842v-1.625" stroke="#040203" stroke-miterlimit="10" stroke-width=".75" fill="#fff"/><path d="M54.244 30.602l.125-18.632M54.369 11.971h-5.375M48.994 11.971v4.75M48.994 16.721h5.25M50.619 16.721v4.937M50.619 21.658h3.75M50.619 21.658h-1.625M48.994 21.658v4.812M48.994 26.471h5.375M50.619 26.471v4.132M67.619 30.602V11.97M67.619 11.971h5.375M72.994 11.971v4.75M72.994 16.721h-5.375M72.244 16.721v4.937M72.244 21.658h-4.625M72.244 21.658h1.5M73.744 21.658v4.812M73.744 26.471h-6.125M72.244 26.471v4.375M54.369 4.72l3.92 2.908M54.369 11.971l5.867-6.5M49.806 11.971l5.062-7.375M72.244 11.971l-5.5-7.25M67.619 13.346l-5.375-7.875M62.244 5.47h-2.008M66.744 4.72l-2.813 3.222M66.744 4.72V2.97M54.369 5.324v-2.38M54.355 2.944l6.899-3.571M66.744 2.97L61.24-.653" stroke="#000" stroke-miterlimit="10" stroke-width=".75" fill="#fff"/><path d="M53.556-1.03l-17.115.126M81.805-16.413H38.83M66.744-5.461h16.977M64.744-33.148h14.513" stroke="#040203" stroke-miterlimit="10" stroke-width=".75" fill="none"/><path d="M82.778-14.379h-7.231M36.848-10.711h6.882" stroke="#040203" stroke-miterlimit="10" stroke-width=".25" fill="none"/><path d="M83.681-7.19h-5.587M38.104-14.94h7.395M41.622-26.175l4.808-.03M41.88-36.69h5.734M72.181-36.69h6.283M73.685-20.44h5.734M41.159-20.44h5.734M78.274-12.693h5.734M78.464 8.283h5.734M36.746 8.283h5.734M36.455 2.944h5.734M78.98 24.042h4.503M78.738-25.773h-5.495" stroke="#040203" stroke-miterlimit="10" stroke-width=".25" fill="#fff"/><path d="M67.619 13.346H54.244" stroke="#040203" stroke-miterlimit="10" stroke-width=".25" fill="none"/><path d="M46.003-54.571h2.106v6.65h-2.106zM59.433-54.571h2.282v6.65h-2.282z" stroke="#e62d2b" stroke-miterlimit="10" fill="#e62d2b"/><path d="M72.186-54.1l1.649-.007.025 6.18-1.649.007z" fill="#e62d2b"/><path d="M72.186-54.1l1.649-.007.025 6.18-1.649.007z" stroke="#e62d2b" stroke-miterlimit="10" fill="none"/><path d="M71.338-47.309v-5.268" stroke="#040203" stroke-miterlimit="10" stroke-width=".75" fill="#fff"/><path d="M-22.18 9.943h47.898v10.9H-22.18zM-22.18 9.943h47.898M25.719 9.943v10.9M25.719 20.843h-2.7M-22.18 9.943v10.9M-22.18 20.843h3.5" stroke="#040203" stroke-miterlimit="10" fill="#f9f7f8"/><path d="M23.019 20.843H-18.68s2.328 2.239 2.453 3.614-.25 17-.25 17-4 7.875-4.75 8.25 0 43.75 0 43.75h46.946V50.082s-4.946-8.125-4.696-9-.375-17.375-.375-17.375.742-2.864 2.371-2.864" fill="#f9f7f8"/><path d="M23.019 20.843H-18.68s2.328 2.239 2.453 3.614-.25 17-.25 17-4 7.875-4.75 8.25 0 43.75 0 43.75h46.946V50.082s-4.946-8.125-4.696-9-.375-17.375-.375-17.375.742-2.864 2.371-2.864z" stroke="#040203" stroke-miterlimit="10" fill="none"/><path d="M-15.82 24.575h36.898M7.399 29.705H-15.83M-9.57 42.95h5.125" stroke="#040203" stroke-miterlimit="10" stroke-width=".75" fill="#fff"/><path d="M-9.57 42.658V33.92s2.625-2.184 5.125 0v8.738" stroke="#040203" stroke-miterlimit="10" stroke-width=".75" fill="#1d1d1d"/><path d="M-15.925 35.083h6.355M13.336 35.083h8.076M-9.008 51.7l35.134-.125M-21.154 57.393H2.867M26.126 61.95l-18.727-.125M-21.135 67.387h17.939M8.742 67.387h17.384M-21.095 72.7h14.087M-9.008 77.887h-12.034M15.346 77.887h10.779M-7.57 83.575h-13.402M14.18 83.075h11.946M15.93 88.325h10.196M-9.008 88.325h-11.897M-7.008 21.086v6.613M1.992 29.705v-8.619M12.18 29.705v-8.619M1.992 35.083v5.492M1.992 40.575h-6.437M1.992 40.575H8.43M13.336 40.575h7.692M-10.07 40.575h-6.773M2.486 46.401v5.174M12.18 46.59v4.985M-7.008 51.7v-5.11M-11.695 57.393V51.7M-11.695 67.387v-5.438M-11.695 77.887v-5.063M-11.695 88.325v-4.75M-7.008 72.7v-5.312M-7.008 61.95v-4M-3.195 57.393V51.7M-2.008 46.59v-6.015M-3.195 35.083v-5.377M6.742 35.083v-5.377M6.742 46.401v-5.826M6.742 57.393V51.7M12.18 61.825v-4.432M16.68 57.393V51.7M16.68 67.387v-5.438M2.486 57.393v4.432M17.182 77.887v-5.063M21.412 88.325V93.7M-3.82 21.086v-5.793M9.555 21.086v-5.45M21.028 21.086v-5.793M-16.57 21.086v-5.45M-9.07 15.454v-5.268M-12.838 15.456l-.021-5.272M.555 15.293v-5.107M4.555 15.293V9.994M-21.773 15.636h47.898M16.68 15.636v-5.45" stroke="#040203" stroke-miterlimit="10" stroke-width=".75" fill="#fff"/><path d="M8.617 42.95v-9s2.625-2.25 5.125 0v9" stroke="#040203" stroke-miterlimit="10" stroke-width=".75" fill="#1d1d1d"/><path d="M8.617 42.95h5.125M-1.226 35.083h9.843M12.725 72.7l13.401.125" stroke="#040203" stroke-miterlimit="10" stroke-width=".75" fill="#fff"/><path d="M-21.773 12.075h5.202M-21.773 13.95h4.577M-21.773 17.2c0 .125 3.952 0 3.952 0M-21.773 19.325h3.751M-15.804 27.699h5.734M-15.804 32.394h5.734M-15.925 38.575h3.899M-18.022 44.575h5.857M-21.518 54.546h8.568M-21.773 59.609h5.847M-21.773 63.825h5.968M-21.154 69.325h8.204M-21.065 75.825h6.732M-20.972 80.45h8.022M-20.905 85.575h6.921M-20.851 91.831h5.047M-20.851 89.825h6.866M-21.518 50.161h8.013M-.945 93.7V71.575M2.177 93.7l-.184-25.25M4.555 68.782v24.917M7.617 93.7V73.263M-3.82 91.012H9.555M9.992 87.575H-3.82M-2.55 73.655l10.274.168M-3.82 78.575H9.555M9.836 81.95H-3.82M-3.82 84.7l13.375-.125M26.126 12.075h-5.973M26.126 13.95h-4.871M26.126 17.2H22.18M26.126 19.325H22.18M21.188 27.699h-7.852M13.144 32.394h8.076M21.081 39.331h-4.802M22.815 44.575h-6.136M26.126 53.825h-6.473M26.126 59.609h-5.973M26.126 64.668h-6.378M25.68 69.325h-4.701M26.126 75.825h-6.378M26.126 80.45h-5.973M26.126 84.575h-6.378M26.126 91.012h-3.31" stroke="#040203" stroke-miterlimit="10" stroke-width=".25" fill="#fff"/><path d="M-13.985 24.575v-1.937M-13.985 22.637h1.035M-12.95 22.637v-1.25M-10.07 24.575v-1.562M-10.07 23.012h-.875M-10.945 22.637v-1.25M-3.195 24.575v-1.937M-3.195 22.637h-1.25M-4.445 22.637v-1.25M-.133 24.075v-1.437M-.133 22.637h.687M.211 22.637h.656M.867 22.637v-1.25M4.555 24.575v-1.937M4.555 22.637H3.368M3.367 22.637v-1.25M11.18 24.575v-1.562M11.18 23.012H9.555M9.555 23.012v-1.625M6.77 23.012h1.258M8.057 23.012l-.005-1.625M6.77 23.012l-.027 1.562M15.93 24.325v-1.312M15.93 23.012h-1.375M14.555 22.637v-1.25M17.796 24.325v-.969M17.796 23.356h1.509M19.305 23.012v-1.625" stroke="#040203" stroke-miterlimit="10" stroke-width=".75" fill="#fff"/><path d="M-3.758 93.456l.125-18.632M-3.633 74.825h-5.375M-9.008 74.825v4.75M-9.008 79.575h5.25M-7.383 79.575v4.937M-7.383 84.512h3.75M-7.383 84.512h-1.625M-9.008 84.512v4.812M-9.008 89.325h5.375M-7.383 89.325v4.132M9.617 93.456V74.824M9.617 74.825h5.375M14.992 74.825v4.75M14.992 79.575H9.617M14.242 79.575v4.937M14.242 84.512H9.617M14.242 84.512h1.5M15.742 84.512v4.812M15.742 89.325H9.617M14.242 89.325V93.7M-3.633 67.575l3.92 2.907M-3.633 74.825l5.867-6.5M-8.195 74.825l5.062-7.375M14.242 74.825l-5.5-7.25M9.617 76.2l-5.375-7.875M4.242 68.325H2.234M8.742 67.575L5.93 70.796M8.742 67.575v-1.75M-3.633 68.178v-2.38M-3.647 65.798l6.899-3.571M8.742 65.825L3.238 62.2" stroke="#000" stroke-miterlimit="10" stroke-width=".75" fill="#fff"/><path d="M-4.445 61.825l-17.115.125M23.804 46.441h-42.975M8.742 57.393H25.72M6.742 29.705h14.513" stroke="#040203" stroke-miterlimit="10" stroke-width=".75" fill="none"/><path d="M24.776 48.475h-7.231M-21.154 52.143h6.882" stroke="#040203" stroke-miterlimit="10" stroke-width=".25" fill="none"/><path d="M25.68 55.664h-5.587M-19.897 47.914h7.395M-16.38 36.679l4.808-.03M-16.121 26.164h5.734M14.18 26.164h6.283M15.683 42.414h5.734M-16.843 42.414h5.734M20.272 50.161h5.734M20.462 71.137h5.734M-21.255 71.137h5.734M-21.547 65.798h5.734M20.979 86.896h4.503M20.736 37.081h-5.495" stroke="#040203" stroke-miterlimit="10" stroke-width=".25" fill="#fff"/><path d="M9.617 76.2H-3.758" stroke="#040203" stroke-miterlimit="10" stroke-width=".25" fill="none"/><path d="M-11.998 8.283h2.106v6.65h-2.106zM1.432 8.283h2.282v6.65H1.432z" stroke="#e62d2b" stroke-miterlimit="10" fill="#e62d2b"/><path d="M14.184 8.754l1.649-.007.025 6.18-1.649.007z" fill="#e62d2b"/><path d="M14.184 8.754l1.649-.007.025 6.18-1.649.007z" stroke="#e62d2b" stroke-miterlimit="10" fill="none"/><path d="M13.336 15.545v-5.268" stroke="#040203" stroke-miterlimit="10" stroke-width=".75" fill="#fff"/><path d="M-79.15 73.711h47.898v10.9H-79.15zM-79.15 73.711h47.898M-31.252 73.711v10.9M-31.252 84.611h-2.7M-79.15 73.711v10.9M-79.15 84.611h3.5" stroke="#040203" stroke-miterlimit="10" fill="#f9f7f8"/><path d="M-33.952 84.611h-41.699s2.328 2.239 2.453 3.614-.25 17-.25 17-4 7.875-4.75 8.25 0 43.75 0 43.75h46.946V113.85s-4.946-8.125-4.696-9-.375-17.375-.375-17.375.742-2.864 2.371-2.864" fill="#f9f7f8"/><path d="M-33.952 84.611h-41.699s2.328 2.239 2.453 3.614-.25 17-.25 17-4 7.875-4.75 8.25 0 43.75 0 43.75h46.946V113.85s-4.946-8.125-4.696-9-.375-17.375-.375-17.375.742-2.864 2.371-2.864z" stroke="#040203" stroke-miterlimit="10" fill="none"/><path d="M-72.791 88.343h36.898M-49.572 93.474H-72.8M-66.541 106.72h5.125" stroke="#040203" stroke-miterlimit="10" stroke-width=".75" fill="#fff"/><path d="M-66.541 106.43v-8.737s2.625-2.185 5.125 0v8.737" stroke="#040203" stroke-miterlimit="10" stroke-width=".75" fill="#1d1d1d"/><path d="M-72.896 98.851h6.355M-43.635 98.851h8.076M-65.978 115.47l35.134-.125M-78.124 121.16h24.021M-30.845 125.72l-18.727-.125M-78.105 131.16h17.939M-48.228 131.16h17.384M-78.066 136.47h14.087M-65.978 141.66h-12.034M-41.624 141.66h10.779M-64.541 147.34h-13.402M-42.791 146.84h11.946M-41.041 152.09h10.196M-65.978 152.09h-11.897M-63.978 84.854v6.613M-54.978 93.474v-8.619M-44.791 93.474v-8.619M-54.978 98.851v5.492M-54.978 104.34h-6.437M-54.978 104.34h6.438M-43.635 104.34h7.692M-67.041 104.34h-6.773M-54.484 110.17v5.174M-44.791 110.36v4.985M-63.978 115.47v-5.11M-68.666 121.16v-5.693M-68.666 131.16v-5.437M-68.666 141.66v-5.062M-68.666 152.09v-4.75M-63.978 136.47v-5.312M-63.978 125.72v-4M-60.166 121.16v-5.693M-58.978 110.36v-6.015M-60.166 98.851v-5.377M-50.228 98.851v-5.377M-50.228 110.17v-5.826M-50.228 121.16v-5.693M-44.791 125.59v-4.432M-40.291 121.16v-5.693M-40.291 131.16v-5.437M-54.484 121.16v4.432M-39.789 141.66v-5.062M-35.559 152.09v5.375M-60.791 84.854v-5.793M-47.416 84.854v-5.45M-35.943 84.854v-5.793M-73.541 84.854v-5.45M-66.041 79.222v-5.268M-69.809 79.224l-.021-5.272M-56.416 79.061v-5.107M-52.416 79.061v-5.299M-78.743 79.404h47.898M-40.291 79.404v-5.45" stroke="#040203" stroke-miterlimit="10" stroke-width=".75" fill="#fff"/><path d="M-48.353 106.72v-9s2.625-2.25 5.125 0v9" stroke="#040203" stroke-miterlimit="10" stroke-width=".75" fill="#1d1d1d"/><path d="M-48.353 106.72h5.125M-58.197 98.851h9.844M-44.246 136.47l13.401.125" stroke="#040203" stroke-miterlimit="10" stroke-width=".75" fill="#fff"/><path d="M-78.743 75.843h5.202M-78.743 77.718h4.577M-78.743 80.968c0 .125 3.952 0 3.952 0M-78.743 83.093h3.751M-72.775 91.467h5.734M-72.775 96.162h5.734M-72.896 102.34h3.899M-74.992 108.34h5.857M-78.488 118.31h8.568M-78.743 123.38h5.847M-78.743 127.59h5.968M-78.124 133.09h8.204M-78.035 139.59h6.732M-77.943 144.22h8.022M-77.876 149.34h6.921M-77.822 155.6h5.047M-77.822 153.59h6.866M-78.488 113.93h8.013M-57.916 157.47v-22.125M-54.794 157.47l-.184-25.25M-52.416 132.55v24.917M-49.353 157.47v-20.437M-60.791 154.78h13.375M-46.978 151.34H-60.79M-59.52 137.42l10.274.168M-60.791 142.34h13.375M-47.135 145.72h-13.656M-60.791 148.47l13.375-.125M-30.845 75.843h-5.973M-30.845 77.718h-4.871M-30.845 80.968h-3.946M-30.845 83.093h-3.946M-35.782 91.467h-7.852M-43.827 96.162h8.076M-35.889 103.1h-4.802M-34.155 108.34h-6.136M-30.845 117.59h-6.473M-30.845 123.38h-5.973M-30.845 128.44h-6.378M-31.291 133.09h-4.701M-30.845 139.59h-6.378M-30.845 144.22h-5.973M-30.845 148.34h-6.378M-30.845 154.78h-3.31" stroke="#040203" stroke-miterlimit="10" stroke-width=".25" fill="#fff"/><path d="M-70.955 88.343v-1.937M-70.955 86.405h1.035M-69.92 86.405v-1.25M-67.041 88.343v-1.562M-67.041 86.78h-.875M-67.916 86.405v-1.25M-60.166 88.343v-1.937M-60.166 86.405h-1.25M-61.416 86.405v-1.25M-57.103 87.843v-1.437M-57.103 86.405h.688M-56.76 86.405h.656M-56.103 86.405v-1.25M-52.416 88.343v-1.937M-52.416 86.405h-1.188M-53.603 86.405v-1.25M-45.791 88.343v-1.562M-45.791 86.78h-1.625M-47.416 86.78v-1.625M-50.201 86.78h1.258M-48.913 86.78l-.005-1.625M-50.201 86.78l-.027 1.562M-41.041 88.093v-1.312M-41.041 86.78h-1.375M-42.416 86.405v-1.25M-39.175 88.093v-.969M-39.175 87.124h1.509M-37.666 86.78v-1.625" stroke="#040203" stroke-miterlimit="10" stroke-width=".75" fill="#fff"/><path d="M-60.728 157.22l.125-18.632M-60.603 138.59h-5.375M-65.978 138.59v4.75M-65.978 143.34h5.25M-64.353 143.34v4.937M-64.353 148.28h3.75M-64.353 148.28h-1.625M-65.978 148.28v4.812M-65.978 153.09h5.375M-64.353 153.09v4.132M-47.353 157.22v-18.632M-47.353 138.59h5.375M-41.978 138.59v4.75M-41.978 143.34h-5.375M-42.728 143.34v4.937M-42.728 148.28h-4.625M-42.728 148.28h1.5M-41.228 148.28v4.812M-41.228 153.09h-6.125M-42.728 153.09v4.375M-60.603 131.34l3.92 2.907M-60.603 138.59l5.867-6.5M-65.166 138.59l5.062-7.375M-42.728 138.59l-5.5-7.25M-47.353 139.97l-5.375-7.875M-52.728 132.09h-2.008M-48.228 131.34l-2.813 3.221M-48.228 131.34v-1.75M-60.603 131.95v-2.38M-60.618 129.57l6.899-3.571M-48.228 129.59l-5.504-3.625" stroke="#000" stroke-miterlimit="10" stroke-width=".75" fill="#fff"/><path d="M-61.416 125.59l-17.115.125M-33.167 110.21h-42.975M-48.228 121.16h16.977M-50.228 93.474h14.513" stroke="#040203" stroke-miterlimit="10" stroke-width=".75" fill="none"/><path d="M-32.195 112.24h-7.231M-78.124 115.91h6.882" stroke="#040203" stroke-miterlimit="10" stroke-width=".25" fill="none"/><path d="M-31.291 119.43h-5.587M-76.868 111.68h7.395M-73.35 100.45l4.808-.03M-73.092 89.932h5.734M-42.791 89.932h6.283M-41.287 106.18h5.734M-73.814 106.18h5.734M-36.698 113.93h5.734M-36.508 134.91h5.734M-78.226 134.91h5.734M-78.517 129.57h5.734M-35.992 150.66h4.503M-36.234 100.85h-5.495" stroke="#040203" stroke-miterlimit="10" stroke-width=".25" fill="#fff"/><path d="M-47.353 139.97h-13.375" stroke="#040203" stroke-miterlimit="10" stroke-width=".25" fill="none"/><path d="M-68.969 72.052h2.106v6.65h-2.106zM-55.539 72.052h2.282v6.65h-2.282z" stroke="#e62d2b" stroke-miterlimit="10" fill="#e62d2b"/><path d="M-42.787 72.522l1.649-.007.025 6.18-1.649.007z" fill="#e62d2b"/><path d="M-42.787 72.522l1.649-.007.025 6.18-1.649.007z" stroke="#e62d2b" stroke-miterlimit="10" fill="none"/><path d="M-43.635 79.313v-5.268" stroke="#040203" stroke-miterlimit="10" stroke-width=".75" fill="#fff"/><path d="M38.04 73.016h47.898v10.9H38.04zM38.04 73.016h47.898M85.938 73.016v10.9M85.938 83.916h-2.7M38.04 73.016v10.9M38.04 83.916h3.5" stroke="#040203" stroke-miterlimit="10" fill="#f9f7f8"/><path d="M83.238 83.916H41.539s2.328 2.239 2.453 3.614-.25 17-.25 17-4 7.875-4.75 8.25 0 43.75 0 43.75h46.946v-43.375s-4.946-8.125-4.696-9-.375-17.375-.375-17.375.742-2.864 2.371-2.864" fill="#f9f7f8"/><path d="M83.238 83.916H41.539s2.328 2.239 2.453 3.614-.25 17-.25 17-4 7.875-4.75 8.25 0 43.75 0 43.75h46.946v-43.375s-4.946-8.125-4.696-9-.375-17.375-.375-17.375.742-2.864 2.371-2.864z" stroke="#040203" stroke-miterlimit="10" fill="none"/><path d="M44.399 87.648h36.898M67.618 92.779H44.39M50.649 106.02h5.125" stroke="#040203" stroke-miterlimit="10" stroke-width=".75" fill="#fff"/><path d="M50.649 105.73v-8.738s2.625-2.184 5.125 0v8.738" stroke="#040203" stroke-miterlimit="10" stroke-width=".75" fill="#1d1d1d"/><path d="M44.294 98.156h6.355M73.555 98.156h8.076M51.212 114.77l35.134-.125M39.066 120.47h24.021M86.345 125.02l-18.727-.125M39.085 130.46h17.939M68.962 130.46h17.384M39.124 135.77h14.087M51.212 140.96H39.178M75.566 140.96h10.779M52.649 146.65H39.247M74.399 146.15h11.946M76.149 151.4h10.196M51.212 151.4H39.315M53.212 84.159v6.613M62.212 92.779V84.16M72.399 92.779V84.16M62.212 98.156v5.492M62.212 103.65h-6.437M62.212 103.65h6.437M73.555 103.65h7.692M50.149 103.65h-6.773M62.706 109.47v5.174M72.399 109.66v4.985M53.212 114.77v-5.11M48.524 120.47v-5.693M48.524 130.46v-5.438M48.524 140.96v-5.063M48.524 151.4v-4.75M53.212 135.77v-5.312M53.212 125.02v-4M57.024 120.47v-5.693M58.212 109.66v-6.015M57.024 98.156v-5.377M66.962 98.156v-5.377M66.962 109.47v-5.826M66.962 120.47v-5.693M72.399 124.9v-4.432M76.899 120.47v-5.693M76.899 130.46v-5.438M62.706 120.47v4.432M77.401 140.96v-5.063M81.631 151.4v5.375M56.399 84.159v-5.793M69.774 84.159v-5.45M81.247 84.159v-5.793M43.649 84.159v-5.45M51.149 78.528V73.26M47.381 78.529l-.021-5.272M60.774 78.366v-5.107M64.774 78.366v-5.299M38.447 78.71h47.898M76.899 78.71v-5.45" stroke="#040203" stroke-miterlimit="10" stroke-width=".75" fill="#fff"/><path d="M68.836 106.02v-9s2.625-2.25 5.125 0v9" stroke="#040203" stroke-miterlimit="10" stroke-width=".75" fill="#1d1d1d"/><path d="M68.836 106.02h5.125M58.993 98.156h9.844M72.944 135.77l13.401.125" stroke="#040203" stroke-miterlimit="10" stroke-width=".75" fill="#fff"/><path d="M38.447 75.148h5.202M38.447 77.023h4.577M38.447 80.273c0 .125 3.952 0 3.952 0M38.447 82.398h3.751M44.415 90.772h5.734M44.415 95.467h5.734M44.294 101.65h3.899M42.198 107.65h5.857M38.702 117.62h8.568M38.447 122.68h5.847M38.447 126.9h5.968M39.066 132.4h8.204M39.155 138.9h6.732M39.247 143.52h8.022M39.314 148.65h6.921M39.368 154.9h5.047M39.368 152.9h6.866M38.702 113.23h8.013M59.274 156.77v-22.125M62.396 156.77l-.184-25.25M64.774 131.86v24.917M67.836 156.77v-20.437M56.399 154.09h13.375M70.212 150.65H56.399M57.67 136.73l10.274.168M56.399 141.65h13.375M70.055 145.02H56.399M56.399 147.77l13.375-.125M86.345 75.148h-5.973M86.345 77.023h-4.871M86.345 80.273h-3.946M86.345 82.398h-3.946M81.408 90.772h-7.853M73.363 95.467h8.076M81.301 102.4h-4.802M83.035 107.65h-6.136M86.345 116.9h-6.473M86.345 122.68h-5.973M86.345 127.74h-6.378M85.899 132.4h-4.701M86.345 138.9h-6.378M86.345 143.52h-5.973M86.345 147.65h-6.378M86.345 154.09h-3.31" stroke="#040203" stroke-miterlimit="10" stroke-width=".25" fill="#fff"/><path d="M46.235 87.648v-1.937M46.235 85.71h1.035M47.27 85.71v-1.25M50.149 87.648v-1.562M50.149 86.086h-.875M49.274 85.71v-1.25M57.024 87.648v-1.937M57.024 85.71h-1.25M55.774 85.71v-1.25M60.086 87.148v-1.437M60.086 85.71h.687M60.43 85.71h.656M61.086 85.71v-1.25M64.774 87.648v-1.937M64.774 85.71h-1.187M63.586 85.71v-1.25M71.399 87.648v-1.562M71.399 86.086h-1.625M69.774 86.086v-1.625M66.989 86.086h1.258M68.277 86.086l-.005-1.625M66.989 86.086l-.027 1.562M76.149 87.398v-1.312M76.149 86.086h-1.375M74.774 85.71v-1.25M78.015 87.398v-.969M78.015 86.429h1.509M79.524 86.086v-1.625" stroke="#040203" stroke-miterlimit="10" stroke-width=".75" fill="#fff"/><path d="M56.462 156.53l.125-18.632M56.586 137.9h-5.375M51.212 137.9v4.75M51.212 142.65h5.25M52.836 142.65v4.937M52.836 147.59h3.75M52.836 147.59h-1.625M51.212 147.59v4.812M51.212 152.4h5.375M52.836 152.4v4.132M69.836 156.53v-18.632M69.836 137.9h5.375M75.212 137.9v4.75M75.212 142.65h-5.375M74.462 142.65v4.937M74.462 147.59h-4.625M74.462 147.59h1.5M75.962 147.59v4.812M75.962 152.4h-6.125M74.462 152.4v4.375M56.586 130.65l3.92 2.907M56.586 137.9l5.867-6.5M52.024 137.9l5.062-7.375M74.462 137.9l-5.5-7.25M69.836 139.27l-5.375-7.875M64.462 131.4h-2.008M68.962 130.65l-2.813 3.221M68.962 130.65v-1.75M56.586 131.25v-2.38M56.572 128.87l6.899-3.571M68.962 128.9l-5.504-3.625" stroke="#000" stroke-miterlimit="10" stroke-width=".75" fill="#fff"/><path d="M55.774 124.9l-17.115.125M84.023 109.51H41.048M68.962 120.47h16.977M66.962 92.779h14.513" stroke="#040203" stroke-miterlimit="10" stroke-width=".75" fill="none"/><path d="M84.995 111.55h-7.231M39.066 115.22h6.882" stroke="#040203" stroke-miterlimit="10" stroke-width=".25" fill="none"/><path d="M85.899 118.74h-5.587M40.322 110.99h7.395M43.839 99.752l4.808-.03M44.098 89.237h5.734M74.399 89.237h6.283M75.903 105.49h5.734M43.376 105.49h5.734M80.492 113.23h5.734M80.682 134.21h5.734M38.964 134.21h5.734M38.673 128.87h5.734M81.198 149.97h4.503M80.955 100.15H75.46" stroke="#040203" stroke-miterlimit="10" stroke-width=".25" fill="#fff"/><path d="M69.836 139.27H56.461" stroke="#040203" stroke-miterlimit="10" stroke-width=".25" fill="none"/><path d="M48.221 71.357h2.106v6.65h-2.106zM61.651 71.357h2.282v6.65h-2.282z" stroke="#e62d2b" stroke-miterlimit="10" fill="#e62d2b"/><path d="M74.403 71.827l1.649-.007.025 6.18-1.649.007z" fill="#e62d2b"/><path d="M74.403 71.827l1.649-.007.025 6.18-1.649.007z" stroke="#e62d2b" stroke-miterlimit="10" fill="none"/><path d="M73.555 78.618V73.35" stroke="#040203" stroke-miterlimit="10" stroke-width=".75" fill="#fff"/></g></g></svg>