<?xml version="1.0" encoding="UTF-8" standalone="no"?>
<!-- Created with Inkscape (http://www.inkscape.org/) -->

<svg
   xmlns:dc="http://purl.org/dc/elements/1.1/"
   xmlns:cc="http://creativecommons.org/ns#"
   xmlns:rdf="http://www.w3.org/1999/02/22-rdf-syntax-ns#"
   xmlns:svg="http://www.w3.org/2000/svg"
   xmlns="http://www.w3.org/2000/svg"
   xmlns:sodipodi="http://sodipodi.sourceforge.net/DTD/sodipodi-0.dtd"
   xmlns:inkscape="http://www.inkscape.org/namespaces/inkscape"
   width="81.672958mm"
   height="15.874998mm"
   viewBox="0 0 81.672959 15.874998"
   version="1.1"
   id="svg211"
   sodipodi:docname="Logo60px.svg"
   inkscape:export-filename="\\AYTOAULA01\Comun\Web Turismo Fuentes\Web unida\img\Logo60px.png"
   inkscape:export-xdpi="96"
   inkscape:export-ydpi="96"
   inkscape:version="0.92.0 r15299">
  <defs
     id="defs205" />
  <sodipodi:namedview
     id="base"
     pagecolor="#ffffff"
     bordercolor="#666666"
     borderopacity="1.0"
     inkscape:pageopacity="0.0"
     inkscape:pageshadow="2"
     inkscape:zoom="1.979899"
     inkscape:cx="139.55534"
     inkscape:cy="49.866592"
     inkscape:document-units="mm"
     inkscape:current-layer="g4509"
     showgrid="false"
     fit-margin-top="0"
     fit-margin-left="0"
     fit-margin-right="0"
     fit-margin-bottom="0"
     inkscape:window-width="1366"
     inkscape:window-height="706"
     inkscape:window-x="-8"
     inkscape:window-y="-8"
     inkscape:window-maximized="1" />
  <metadata
     id="metadata208">
    <rdf:RDF>
      <cc:Work
         rdf:about="">
        <dc:format>image/svg+xml</dc:format>
        <dc:type
           rdf:resource="http://purl.org/dc/dcmitype/StillImage" />
        <dc:title></dc:title>
      </cc:Work>
    </rdf:RDF>
  </metadata>
  <g
     inkscape:label="Capa 1"
     inkscape:groupmode="layer"
     id="layer1"
     transform="translate(116.98388,-65.43423)">
    <g
       id="g3703"
       transform="translate(4.0090429,0.13363474)">
      <g
         id="g4509">
        <g
           id="g4562">
          <g
             id="text50-9-8-1"
             style="font-style:normal;font-variant:normal;font-weight:normal;font-stretch:normal;font-size:10.61963558px;line-height:2.6549089px;font-family:Qwigley;-inkscape-font-specification:Qwigley;letter-spacing:0px;word-spacing:0px;fill:#f1f6f7;fill-opacity:1;stroke:none;stroke-width:0.05309818"
             aria-label="Fuentes">
            <path
               id="path4511"
               style="font-style:normal;font-variant:normal;font-weight:normal;font-stretch:normal;font-size:10.69043255px;font-family:'The Girl Next Door';-inkscape-font-specification:'The Girl Next Door';fill:#f1f6f7;stroke-width:0.05309818"
               d="m -74.585862,73.876954 q -0.09396,-0.657712 -0.167038,-1.419823 -0.07308,-0.762111 -0.135718,-1.545102 -0.0522,-0.79343 -0.08352,-1.545101 -0.03132,-0.762111 -0.03132,-1.430263 v -0.06264 q 0.01044,-0.01044 0.02088,-0.0522 0.02088,-0.0522 0.04176,-0.09396 0.02088,-0.04176 0.04176,-0.08352 0.02088,-0.04176 0.03132,-0.06264 0.501114,0.02088 0.981349,0.01044 0.490674,-0.02088 0.970908,-0.06264 0.480234,-0.04176 0.960469,-0.07308 0.480234,-0.03132 0.970908,-0.03132 h 0.114839 q 0.0522,0 0.114838,0.01044 0.07308,0 0.114839,0 0.0522,0 0.06264,0 l 0.146158,0.146158 -0.146158,0.146158 q -0.01044,0.01044 -0.167038,0.03132 -0.156598,0.01044 -0.407155,0.04176 -0.240117,0.02088 -0.553313,0.0522 -0.302757,0.03132 -0.626393,0.06264 -0.313196,0.03132 -0.605513,0.06264 -0.281876,0.02088 -0.501114,0.03132 -0.260997,0.02088 -0.438474,0.01044 -0.167038,-0.02088 -0.260997,0.01044 -0.09396,0.02088 -0.135719,0.135718 -0.03132,0.114839 -0.03132,0.386276 v 0.114838 q 0,0.06264 0,0.146158 0.01044,0.07308 0.01044,0.135719 v 0.06264 q 0.01044,0.146158 0.03132,0.354956 0.02088,0.208797 0.04176,0.417595 0.02088,0.208797 0.04176,0.365395 0.03132,0.146159 0.03132,0.156599 l 0.146158,0.135718 h 2.599529 q 0,0.177478 -0.104399,0.240117 -0.104398,0.06264 -0.260997,0.07308 -0.146158,0.01044 -0.292316,-0.01044 -0.146158,-0.02088 -0.229677,-0.01044 -0.07308,0 -0.208798,0.01044 -0.125278,0.01044 -0.292316,0.02088 -0.167038,0.01044 -0.354956,0.03132 -0.187918,0.01044 -0.365396,0.03132 -0.167038,0.01044 -0.302756,0.03132 -0.135719,0.01044 -0.187918,0.01044 -0.03132,0.03132 -0.08352,0.146158 -0.0522,0.104399 -0.06264,0.135719 v 0.146158 q 0,0.09396 0.01044,0.292316 0.02088,0.187918 0.03132,0.428035 0.02088,0.229677 0.03132,0.501114 0.02088,0.260997 0.03132,0.501114 0.01044,0.229678 0.02088,0.428035 0.01044,0.187918 0.02088,0.271437 -0.03132,0.0522 -0.09396,0.104399 -0.0522,0.04176 -0.114838,0.08352 -0.0522,0.04176 -0.125279,0.07308 -0.06264,0.03132 -0.09396,0.03132 -0.04176,0 -0.104399,-0.0522 -0.0522,-0.0522 -0.0522,-0.08352 z"
               inkscape:connector-curvature="0" />
            <path
               id="path4513"
               style="font-style:normal;font-variant:normal;font-weight:normal;font-stretch:normal;font-size:10.69043255px;font-family:'The Girl Next Door';-inkscape-font-specification:'The Girl Next Door';fill:#f1f6f7;stroke-width:0.05309818"
               d="m -67.21531,72.718128 q -0.01044,0 -0.03132,0.01044 -0.02088,0 -0.03132,0.01044 -0.187918,0.219237 -0.365396,0.438474 -0.177478,0.208798 -0.365395,0.365396 -0.187918,0.146158 -0.417595,0.250557 -0.229678,0.09396 -0.521994,0.09396 -0.167038,0 -0.302757,-0.08352 -0.125278,-0.08352 -0.219237,-0.208798 -0.09396,-0.125278 -0.156598,-0.281876 -0.06264,-0.156598 -0.07308,-0.292317 -0.01044,-0.07308 -0.02088,-0.334076 0,-0.260997 0,-0.626392 v -1.607741 q 0,-0.396715 0,-0.699472 0,-0.313196 -0.02088,-0.438475 0,-0.02088 -0.01044,-0.104398 0,-0.09396 0,-0.125279 0,-0.125278 0.03132,-0.240117 0.03132,-0.114839 0.198358,-0.114839 0.07308,0 0.114838,0.04176 0.0522,0.03132 0.08352,0.125278 0.02088,0.09396 0.03132,0.386276 0.02088,0.292316 0.03132,0.689032 0.02088,0.396715 0.03132,0.83519 0.01044,0.438474 0.02088,0.83519 0.02088,0.386275 0.03132,0.689031 0.02088,0.292317 0.04176,0.407156 0.02088,0.125278 0.0522,0.229677 0.04176,0.104399 0.08352,0.187918 0.0522,0.07308 0.135718,0.114838 0.09396,0.04176 0.219237,0.04176 0.03132,0 0.114839,0 0.08352,0 0.104399,-0.01044 0.417595,-0.365396 0.730791,-0.88739 0.313196,-0.532433 0.511554,-1.127506 0.198357,-0.595073 0.302756,-1.211026 0.114839,-0.615952 0.146159,-1.179706 l 0.03132,-0.01044 q 0.02088,0 0.03132,0 0.07308,0 0.114838,0.03132 0.0522,0.03132 0.09396,0.104399 0.01044,0.250557 0,0.615953 0,0.354955 0,0.751671 0,0.396715 0.02088,0.82475 0.02088,0.428035 0.07308,0.83519 0.0522,0.396715 0.167038,0.741231 0.125279,0.334076 0.323636,0.574193 0.198358,0.229677 0.480235,0.334076 0.292316,0.104399 0.689031,0.02088 -0.08352,0.135718 -0.198357,0.198358 -0.104399,0.0522 -0.240117,0.08352 -0.135719,0.03132 -0.271437,0.03132 h -0.271437 q -0.271437,0 -0.480234,-0.09396 -0.208798,-0.104398 -0.365396,-0.250557 -0.156598,-0.146158 -0.260997,-0.313196 -0.104399,-0.167038 -0.177478,-0.313196 -0.07308,-0.146159 -0.135718,-0.240117 -0.0522,-0.104399 -0.104399,-0.104399 z"
               inkscape:connector-curvature="0" />
            <path
               id="path4515"
               style="font-style:normal;font-variant:normal;font-weight:normal;font-stretch:normal;font-size:10.69043255px;font-family:'The Girl Next Door';-inkscape-font-specification:'The Girl Next Door';fill:#f1f6f7;stroke-width:0.05309818"
               d="m -64.083347,70.87027 q 0,-0.480234 0.104399,-0.88739 0.114838,-0.417595 0.354955,-0.709911 0.240117,-0.292317 0.615953,-0.459355 0.386275,-0.167038 0.908269,-0.167038 0.302757,0 0.521994,0.0522 0.229677,0.0522 0.375835,0.187918 0.156599,0.125278 0.229678,0.344515 0.07308,0.208798 0.07308,0.521994 0,0.323636 -0.135719,0.553314 -0.125278,0.219237 -0.344515,0.365395 -0.219238,0.146159 -0.490675,0.219238 -0.271436,0.07308 -0.553313,0.07308 -0.0522,0 -0.146158,0.02088 -0.09396,0.02088 -0.219238,0.0522 -0.114838,0.02088 -0.240117,0.0522 -0.125278,0.03132 -0.240117,0.04176 -0.104399,0 -0.177478,-0.01044 -0.06264,-0.02088 -0.06264,-0.09396 0,-0.01044 0.04176,-0.06264 0.0522,-0.06264 0.104399,-0.125279 0.0522,-0.06264 0.09396,-0.125278 l 0.0522,-0.0522 q 0.281877,-0.04176 0.605513,-0.06264 0.334076,-0.03132 0.605513,-0.114839 0.281877,-0.08352 0.469794,-0.271436 0.187918,-0.187918 0.187918,-0.553314 0,-0.187917 -0.06264,-0.292316 -0.0522,-0.114839 -0.167038,-0.177478 -0.104399,-0.06264 -0.250557,-0.08352 -0.146158,-0.02088 -0.313196,-0.02088 -0.365396,0 -0.636833,0.125279 -0.260997,0.114838 -0.417595,0.334076 -0.156598,0.219237 -0.240117,0.521993 -0.07308,0.302757 -0.07308,0.668153 0,0.229677 0.01044,0.542873 0.01044,0.302756 0.0522,0.615953 0.0522,0.313196 0.135719,0.626392 0.08352,0.302757 0.219237,0.542874 0.146158,0.240117 0.334076,0.386275 0.198358,0.146158 0.469794,0.146158 0.0522,0 0.156599,-0.02088 0.104398,-0.02088 0.208797,-0.04176 0.114839,-0.03132 0.208798,-0.0522 0.104398,-0.02088 0.156598,-0.04176 0.08352,-0.03132 0.250557,-0.104398 0.167038,-0.07308 0.375835,-0.167038 0.219238,-0.09396 0.448915,-0.208798 0.229677,-0.114839 0.438475,-0.208798 0.208797,-0.09396 0.375835,-0.177477 0.177478,-0.09396 0.250557,-0.125279 0.01044,0.01044 0.01044,0.06264 0,0.0522 0,0.07308 0,0.187918 -0.187918,0.375836 -0.177478,0.177478 -0.459354,0.344516 -0.281877,0.156598 -0.636833,0.292316 -0.354955,0.135719 -0.678592,0.229678 -0.323636,0.09396 -0.595072,0.156598 -0.271437,0.0522 -0.407156,0.0522 -0.323636,0 -0.584633,-0.146158 -0.260997,-0.146158 -0.448914,-0.396715 -0.187918,-0.250557 -0.323636,-0.574194 -0.135719,-0.323636 -0.219238,-0.668152 -0.07308,-0.344515 -0.104399,-0.699471 -0.03132,-0.365396 -0.03132,-0.678592 z"
               inkscape:connector-curvature="0" />
            <path
               id="path4517"
               style="font-style:normal;font-variant:normal;font-weight:normal;font-stretch:normal;font-size:10.69043255px;font-family:'The Girl Next Door';-inkscape-font-specification:'The Girl Next Door';fill:#f1f6f7;stroke-width:0.05309818"
               d="m -56.869394,68.991092 q -0.219237,0 -0.511553,0.146159 -0.292317,0.135718 -0.563754,0.354955 -0.271436,0.208798 -0.459354,0.469795 -0.187918,0.250557 -0.187918,0.480234 v 3.152842 q 0,0.04176 -0.0522,0.07308 -0.04176,0.02088 -0.104399,0.04176 -0.0522,0.01044 -0.114839,0.02088 -0.06264,0 -0.09396,0 -0.135718,0 -0.198357,-0.04176 -0.06264,-0.0522 -0.08352,-0.135718 -0.01044,-0.08352 -0.01044,-0.187918 0.01044,-0.104399 0.01044,-0.208797 -0.01044,-0.08352 -0.02088,-0.365396 l -0.02088,-0.636832 q -0.01044,-0.365396 -0.03132,-0.772551 -0.01044,-0.417595 -0.02088,-0.782991 -0.01044,-0.375835 -0.03132,-0.647272 -0.01044,-0.281877 -0.01044,-0.375836 V 69.17901 q 0,-0.06264 0.02088,-0.114839 0.02088,-0.0522 0.08352,-0.09396 0.06264,-0.0522 0.177478,-0.09396 0.03132,0 0.07308,0.06264 0.0522,0.0522 0.06264,0.07308 0.01044,0.04176 0.03132,0.146158 0.03132,0.104399 0.0522,0.219238 0.02088,0.104398 0.04176,0.208797 0.02088,0.104399 0.02088,0.146158 0.01044,0.01044 0.03132,0.01044 0.02088,0 0.04176,0 0.146158,0 0.344516,-0.177478 0.208797,-0.187917 0.469794,-0.407155 0.271437,-0.219237 0.563753,-0.396715 0.292317,-0.187918 0.615953,-0.187918 0.407155,0 0.636832,0.219238 0.240117,0.208797 0.344516,0.574193 0.114839,0.354956 0.146159,0.80387 0.04176,0.448915 0.06264,0.918709 0.03132,0.459355 0.08352,0.918709 0.0522,0.448915 0.198357,0.803871 0.146159,0.354956 0.417595,0.574193 0.281877,0.208797 0.762111,0.208797 0.156598,0 0.313197,-0.02088 0.167038,-0.02088 0.323636,-0.0522 0.156598,-0.03132 0.313196,-0.0522 0.167038,-0.03132 0.334076,-0.03132 0.02088,0 0.08352,0 h 0.0522 q -0.375835,0.281877 -0.762111,0.438475 -0.386275,0.146158 -0.876949,0.146158 -0.521994,0 -0.84563,-0.208797 -0.313196,-0.219238 -0.501114,-0.574193 -0.187918,-0.365396 -0.260997,-0.814311 -0.07308,-0.448914 -0.114839,-0.908269 -0.04176,-0.469794 -0.06264,-0.918709 -0.02088,-0.459354 -0.09396,-0.81431 -0.07308,-0.354956 -0.229677,-0.574193 -0.156598,-0.219238 -0.448915,-0.219238 z"
               inkscape:connector-curvature="0" />
            <path
               id="path4519"
               style="font-style:normal;font-variant:normal;font-weight:normal;font-stretch:normal;font-size:10.69043255px;font-family:'The Girl Next Door';-inkscape-font-specification:'The Girl Next Door';fill:#f1f6f7;stroke-width:0.05309818"
               d="m -53.194557,69.815842 q -0.06264,-0.281876 -0.0522,-0.407155 0.02088,-0.125278 0.114839,-0.156598 0.09396,-0.04176 0.240117,-0.02088 0.156598,0.01044 0.334076,0 0.187918,-0.01044 0.396716,-0.08352 0.219237,-0.07308 0.428034,-0.281876 0.02088,-0.114839 0.04176,-0.386276 0.03132,-0.281876 0.06264,-0.636832 0.04176,-0.354956 0.07308,-0.741231 0.04176,-0.396715 0.07308,-0.751671 0.03132,-0.354956 0.0522,-0.626393 0.03132,-0.271437 0.0522,-0.386275 h 0.08352 q 0.03132,0 0.07308,-0.01044 0.04176,-0.01044 0.08352,-0.02088 0.04176,-0.01044 0.07308,0 0.03132,0 0.06264,0.04176 0.02088,0.354955 -0.01044,0.80387 -0.03132,0.448915 -0.08352,0.939589 -0.04176,0.490674 -0.07308,0.981348 -0.03132,0.490674 0.01044,0.918709 l 2.025335,-0.135718 -0.07308,0.407155 -1.785218,0.240117 q -0.240118,0.438475 -0.323637,0.939589 -0.08352,0.490674 -0.0522,0.960469 0.03132,0.459354 0.146158,0.866509 0.125279,0.407155 0.292317,0.689032 0.177478,0.281877 0.375835,0.407155 0.198358,0.114839 0.386276,0.01044 0.198357,0.01044 0.344516,-0.0522 0.156598,-0.07308 0.260997,-0.187918 0.104398,-0.114839 0.177477,-0.250557 0.07308,-0.146158 0.125279,-0.281877 0.06264,-0.135718 0.125278,-0.240117 0.07308,-0.104399 0.156599,-0.156598 0,0.02088 0,0.125278 0.01044,0.09396 0.01044,0.125279 0,0.302756 -0.104398,0.574193 -0.104399,0.260997 -0.281877,0.448915 -0.167038,0.187918 -0.417595,0.292316 -0.240117,0.104399 -0.521994,0.104399 -0.459354,-0.02088 -0.741231,-0.240117 -0.281877,-0.229677 -0.448915,-0.595073 -0.167038,-0.365396 -0.229677,-0.80387 -0.0522,-0.448915 -0.0522,-0.90827 0,-0.459354 0.02088,-0.887389 0.03132,-0.438475 0.06264,-0.782991 z"
               inkscape:connector-curvature="0" />
            <path
               id="path4521"
               style="font-style:normal;font-variant:normal;font-weight:normal;font-stretch:normal;font-size:10.69043255px;font-family:'The Girl Next Door';-inkscape-font-specification:'The Girl Next Door';fill:#f1f6f7;stroke-width:0.05309818"
               d="m -48.820248,70.87027 q 0,-0.480234 0.104398,-0.88739 0.114839,-0.417595 0.354956,-0.709911 0.240117,-0.292317 0.615953,-0.459355 0.386275,-0.167038 0.908269,-0.167038 0.302756,0 0.521994,0.0522 0.229677,0.0522 0.375835,0.187918 0.156598,0.125278 0.229677,0.344515 0.07308,0.208798 0.07308,0.521994 0,0.323636 -0.135719,0.553314 -0.125278,0.219237 -0.344516,0.365395 -0.219237,0.146159 -0.490674,0.219238 -0.271437,0.07308 -0.553313,0.07308 -0.0522,0 -0.146159,0.02088 -0.09396,0.02088 -0.219237,0.0522 -0.114839,0.02088 -0.240117,0.0522 -0.125279,0.03132 -0.240117,0.04176 -0.104399,0 -0.177478,-0.01044 -0.06264,-0.02088 -0.06264,-0.09396 0,-0.01044 0.04176,-0.06264 0.0522,-0.06264 0.104399,-0.125279 0.0522,-0.06264 0.09396,-0.125278 l 0.0522,-0.0522 q 0.281877,-0.04176 0.605513,-0.06264 0.334076,-0.03132 0.605513,-0.114839 0.281876,-0.08352 0.469794,-0.271436 0.187918,-0.187918 0.187918,-0.553314 0,-0.187917 -0.06264,-0.292316 -0.0522,-0.114839 -0.167038,-0.177478 -0.104399,-0.06264 -0.250557,-0.08352 -0.146159,-0.02088 -0.313197,-0.02088 -0.365395,0 -0.636832,0.125279 -0.260997,0.114838 -0.417595,0.334076 -0.156598,0.219237 -0.240117,0.521993 -0.07308,0.302757 -0.07308,0.668153 0,0.229677 0.01044,0.542873 0.01044,0.302756 0.0522,0.615953 0.0522,0.313196 0.135718,0.626392 0.08352,0.302757 0.219238,0.542874 0.146158,0.240117 0.334076,0.386275 0.198357,0.146158 0.469794,0.146158 0.0522,0 0.156598,-0.02088 0.104399,-0.02088 0.208798,-0.04176 0.114838,-0.03132 0.208797,-0.0522 0.104399,-0.02088 0.156598,-0.04176 0.08352,-0.03132 0.250557,-0.104398 0.167038,-0.07308 0.375836,-0.167038 0.219237,-0.09396 0.448915,-0.208798 0.229677,-0.114839 0.438474,-0.208798 0.208798,-0.09396 0.375836,-0.177477 0.177478,-0.09396 0.250557,-0.125279 0.01044,0.01044 0.01044,0.06264 0,0.0522 0,0.07308 0,0.187918 -0.187918,0.375836 -0.177478,0.177478 -0.459355,0.344516 -0.281876,0.156598 -0.636832,0.292316 -0.354956,0.135719 -0.678592,0.229678 -0.323636,0.09396 -0.595073,0.156598 -0.271437,0.0522 -0.407155,0.0522 -0.323636,0 -0.584633,-0.146158 -0.260997,-0.146158 -0.448915,-0.396715 -0.187917,-0.250557 -0.323636,-0.574194 -0.135718,-0.323636 -0.219237,-0.668152 -0.07308,-0.344515 -0.104399,-0.699471 -0.03132,-0.365396 -0.03132,-0.678592 z"
               inkscape:connector-curvature="0" />
            <path
               id="path4523"
               style="font-style:normal;font-variant:normal;font-weight:normal;font-stretch:normal;font-size:10.69043255px;font-family:'The Girl Next Door';-inkscape-font-specification:'The Girl Next Door';fill:#f1f6f7;stroke-width:0.05309818"
               d="m -44.184945,72.582409 q -0.01044,-0.03132 -0.01044,-0.135718 0,-0.114839 0,-0.156598 0,-0.03132 -0.01044,-0.09396 0,-0.07308 0.01044,-0.135718 0.01044,-0.06264 0.04176,-0.114839 0.03132,-0.0522 0.104398,-0.07308 -0.01044,0.208797 0.09396,0.407155 0.104399,0.198358 0.271437,0.396715 0.167038,0.187918 0.375835,0.365396 0.219238,0.167038 0.448915,0.292317 0.240117,0.114838 0.459355,0.187917 0.229677,0.07308 0.428035,0.07308 0.365395,0 0.741231,-0.125278 0.375835,-0.125279 0.668152,-0.344516 0.302756,-0.229677 0.490674,-0.553313 0.187918,-0.323637 0.187918,-0.730792 0,-0.250557 -0.156598,-0.417595 -0.146159,-0.177478 -0.396716,-0.302756 -0.240117,-0.135718 -0.553313,-0.219237 -0.302757,-0.09396 -0.636833,-0.177478 -0.323636,-0.08352 -0.636832,-0.177478 -0.313196,-0.09396 -0.563753,-0.219238 -0.240117,-0.135718 -0.386276,-0.313196 -0.146158,-0.177478 -0.146158,-0.448915 0,-0.240117 0.104399,-0.417595 0.114839,-0.187917 0.292316,-0.334076 0.187918,-0.146158 0.417595,-0.240117 0.240118,-0.104398 0.480235,-0.167038 0.240117,-0.07308 0.469794,-0.09396 0.240117,-0.03132 0.428035,-0.03132 0.240117,0 0.417595,0.01044 0.187918,0 0.344516,0.0522 0.156598,0.0522 0.281877,0.167038 0.125278,0.114839 0.219237,0.365396 -0.04176,0.08352 -0.09396,0.114838 -0.04176,0.02088 -0.125278,0.02088 -0.114839,0 -0.198358,-0.08352 -0.07308,-0.09396 -0.156598,-0.208797 -0.03132,0 -0.125279,0 -0.09396,-0.01044 -0.198357,-0.01044 -0.09396,0 -0.187918,0 -0.08352,0 -0.125279,0 -0.125278,0 -0.313196,0.01044 -0.177478,0.01044 -0.386275,0.04176 -0.198358,0.03132 -0.396716,0.09396 -0.187917,0.06264 -0.354955,0.156598 -0.156598,0.09396 -0.260997,0.240117 -0.09396,0.135719 -0.09396,0.323636 0,0.167038 0.06264,0.260997 0.07308,0.09396 0.240117,0.187918 0.07308,0 0.219238,0.0522 0.146158,0.04176 0.323636,0.09396 0.187918,0.0522 0.386275,0.114839 0.208798,0.0522 0.386276,0.114838 0.187917,0.06264 0.323636,0.114839 0.146158,0.0522 0.219237,0.07308 0.250557,0.09396 0.511554,0.187918 0.260997,0.09396 0.469794,0.240117 0.208798,0.135719 0.334076,0.344516 0.125279,0.198358 0.125279,0.511554 0,0.469794 -0.250557,0.86651 -0.250557,0.386275 -0.636832,0.678592 -0.375836,0.281876 -0.835191,0.448914 -0.448914,0.156598 -0.876949,0.156598 -0.375836,0 -0.699472,-0.104398 -0.323636,-0.114839 -0.605512,-0.313197 -0.271437,-0.198357 -0.511554,-0.448914 -0.240118,-0.260997 -0.448915,-0.574194 z"
               inkscape:connector-curvature="0" />
          </g>
          <g
             transform="matrix(0.20068604,0,0,0.20068604,-17.889364,-8.329076)"
             id="g4960-4-1"
             inkscape:export-filename="\\AYTOAULA01\Comun\Web Turismo Fuentes\Web unida\img\Logo60px.png"
             inkscape:export-xdpi="96"
             inkscape:export-ydpi="96">
            <path
               d="m -313.7565,443.38177 c 0,1.44264 -5.80774,2.61173 -12.97196,2.61173 -7.16402,0 -12.97177,-1.16909 -12.97177,-2.61173 0,-1.44236 5.80775,-2.61173 12.97177,-2.61173 7.16422,0 12.97196,1.16937 12.97196,2.61173"
               style="fill:#1a1a1a;fill-opacity:1;fill-rule:nonzero;stroke:none;stroke-width:0.00905155"
               id="path78-0-7-2-7-0"
               inkscape:connector-curvature="0" />
            <path
               d="m -298.95903,399.5138 c 0,15.33649 -27.76915,40.40267 -27.76915,40.40267 0,0 -27.76916,-25.06618 -27.76916,-40.40267 0,-15.33631 12.43276,-27.76952 27.76916,-27.76952 15.33658,0 27.76915,12.43321 27.76915,27.76952"
               style="fill:#000000;fill-opacity:1;fill-rule:nonzero;stroke:none;stroke-width:0.00905155"
               id="path80-2-7-9-6-4"
               inkscape:connector-curvature="0" />
            <path
               d="m -305.63753,398.1425 c 0,11.64835 -9.44249,21.09074 -21.09065,21.09074 -11.64808,0 -21.09066,-9.44239 -21.09066,-21.09074 0,-11.64826 9.44258,-21.09083 21.09066,-21.09083 11.64816,0 21.09065,9.44257 21.09065,21.09083"
               style="fill:#e52b2a;fill-opacity:1;fill-rule:nonzero;stroke:none;stroke-width:0.00905155"
               id="path82-3-3-8-9-6"
               inkscape:connector-curvature="0" />
            <path
               d="m -313.7565,399.30426 c 0,7.16421 -5.80738,12.97177 -12.97168,12.97177 -7.16394,0 -12.97205,-5.80756 -12.97205,-12.97177 0,-7.16394 5.80811,-12.9716 12.97205,-12.9716 7.1643,0 12.97168,5.80766 12.97168,12.9716"
               style="fill:#000000;fill-opacity:1;fill-rule:nonzero;stroke:none;stroke-width:0.00905155"
               id="path84-4-4-5-2-9"
               inkscape:connector-curvature="0" />
            <path
               d="m -321.3589,399.33883 c 0,2.96538 -2.40408,5.36938 -5.36928,5.36938 -2.96538,0 -5.36929,-2.404 -5.36929,-5.36938 0,-2.96528 2.40391,-5.36919 5.36929,-5.36919 2.9652,0 5.36928,2.40391 5.36928,5.36919"
               style="fill:#e52b2a;fill-opacity:1;fill-rule:nonzero;stroke:none;stroke-width:0.00905155"
               id="path86-3-7-8-4-0"
               inkscape:connector-curvature="0" />
          </g>
          <g
             id="flowRoot4640-9-6-9"
             style="font-style:normal;font-variant:normal;font-weight:normal;font-stretch:normal;font-size:192px;line-height:100px;font-family:Shadows;-inkscape-font-specification:Shadows;letter-spacing:0px;word-spacing:0px;fill:#f1f6f7;fill-opacity:1;stroke:none"
             transform="matrix(0.05309818,0,0,0.05309818,-97.659546,62.282312)"
             aria-label="Turism">
            <path
               id="path4526"
               style="font-style:normal;font-variant:normal;font-weight:normal;font-stretch:normal;font-family:'Montserrat Alternates';-inkscape-font-specification:'Montserrat Alternates';fill:#f1f6f7"
               d="m -331.34228,120.89549 q -16.896,-9.024 -37.056,-11.328 v 111.168 h -25.728 v -111.168 q -19.968,2.304 -37.056,11.328 l -8.256,-21.888005 q 12.672,-6.912 27.456,-10.56 14.976,-3.84 30.528,-3.84 15.552,0 30.336,3.84 14.976,3.648 28.032,10.752 z"
               inkscape:connector-curvature="0" />
            <path
               id="path4528"
               style="font-style:normal;font-variant:normal;font-weight:normal;font-stretch:normal;font-family:'Montserrat Alternates';-inkscape-font-specification:'Montserrat Alternates';fill:#f1f6f7"
               d="m -213.46328,118.01549 v 102.72 h -25.152 v -19.008 q -10.368,19.968 -35.712,19.968 -17.28,0 -27.264,-10.56 -9.984,-10.56 -9.984,-28.8 v -64.32 h 25.152 v 57.024 q 0,10.752 5.76,16.896 5.952,6.144 16.32,6.144 11.904,-0.192 18.816,-8.448 6.912,-8.256 6.912,-20.928 v -50.688 z"
               inkscape:connector-curvature="0" />
            <path
               id="path4530"
               style="font-style:normal;font-variant:normal;font-weight:normal;font-stretch:normal;font-family:'Montserrat Alternates';-inkscape-font-specification:'Montserrat Alternates';fill:#f1f6f7"
               d="m -157.35128,137.79149 q 5.184,-9.984 14.016,-15.168 9.024,-5.376 20.928,-5.568 v 24.192 q -15.936,-0.96 -25.536,7.488 -9.408,8.256 -9.408,22.464 v 49.536 h -24.96 v -102.72 h 24.96 z"
               inkscape:connector-curvature="0" />
            <path
               id="path4532"
               style="font-style:normal;font-variant:normal;font-weight:normal;font-stretch:normal;font-family:'Montserrat Alternates';-inkscape-font-specification:'Montserrat Alternates';fill:#f1f6f7"
               d="m -105.06128,118.01549 h 24.959999 v 102.72 h -24.959999 z m 12.287999,-44.160005 q 6.144,0 10.176,4.224 4.032,4.224 4.032,10.752 0,6.336 -4.032,10.56 -4.032,4.224005 -10.176,4.224005 -6.144,0 -10.175999,-4.224005 -4.032,-4.224 -4.032,-10.56 0,-6.528 4.032,-10.752 4.031999,-4.224 10.175999,-4.224 z"
               inkscape:connector-curvature="0" />
            <path
               id="path4534"
               style="font-style:normal;font-variant:normal;font-weight:normal;font-stretch:normal;font-family:'Montserrat Alternates';-inkscape-font-specification:'Montserrat Alternates';fill:#f1f6f7"
               d="m 11.677719,145.85549 q -7.4880003,-4.416 -15.5520002,-6.912 -7.8719998,-2.496 -14.5919998,-2.496 -6.336,0 -10.176,2.304 -3.648,2.112 -3.648,6.72 0,4.8 4.608,7.488 4.8,2.496 14.976,5.376 10.7519998,3.264 17.6639997,6.528 6.9120003,3.072 11.9040003,9.408 5.184,6.144 5.184,16.32 0,14.976 -11.52,23.04 -11.52000025,8.064 -28.992,8.064 -11.904,0 -23.232,-3.648 -11.328,-3.84 -19.2,-10.752 l 8.64,-17.472 q 6.912,5.952 16.512,9.408 9.6,3.264 18.24,3.264 6.912,0 10.9439998,-2.304 4.224,-2.496 4.224,-7.296 0,-5.376 -4.8000001,-8.064 -4.7999997,-2.688 -15.5519997,-5.952 -10.368,-3.072 -16.896,-5.952 -6.528,-3.072 -11.328,-9.024 -4.8,-6.144 -4.8,-15.936 0,-15.168 10.944,-23.04 11.136,-8.064 27.84,-8.064 10.1759997,0 19.9679997,2.88 9.9840003,2.88 17.6640003,8.064 z"
               inkscape:connector-curvature="0" />
            <path
               id="path4536"
               style="font-style:normal;font-variant:normal;font-weight:normal;font-stretch:normal;font-family:'Montserrat Alternates';-inkscape-font-specification:'Montserrat Alternates';fill:#f1f6f7"
               d="m 178.03072,117.05549 q 17.472,0 27.456,10.752 9.984,10.56 9.984,28.8 v 64.128 h -25.152 v -56.832 q 0,-10.944 -6.144,-17.088 -5.952,-6.336 -16.32,-6.336 -11.904,0.384 -19.008,8.64 -6.912,8.256 -6.912,20.928 v 50.688 h -25.152 v -56.832 q 0,-10.944 -5.952,-17.088 -5.952,-6.336 -16.320001,-6.336 -12.096,0.384 -19.2,8.64 -6.912,8.256 -6.912,20.928 v 50.688 h -24.96 v -102.72 h 24.96 v 19.008 q 10.176,-19.584 36.096001,-19.968 13.44,0 22.464,6.528 9.216,6.336 12.864,18.048 9.792,-24.192 38.208,-24.576 z"
               inkscape:connector-curvature="0" />
          </g>
        </g>
      </g>
    </g>
  </g>
</svg>
